<svg width="26" height="26" viewBox="0 0 26 26" fill="none" xmlns="http://www.w3.org/2000/svg">
<circle cx="12.5273" cy="12.8184" r="12.5" fill="#0081E6"/>
<g clip-path="url(#clip0_28_304)">
<rect width="13.8889" height="13.8889" transform="translate(5.58301 5.87402)" fill="#0081E6"/>
<path d="M12.4997 7.40186C11.4284 7.40186 10.3811 7.71954 9.49034 8.31473C8.59957 8.90992 7.9053 9.75589 7.49533 10.7457C7.08535 11.7354 6.97809 12.8245 7.18709 13.8753C7.39609 14.926 7.91198 15.8911 8.66952 16.6487C9.42705 17.4062 10.3922 17.9221 11.4429 18.1311C12.4937 18.3401 13.5828 18.2328 14.5725 17.8229C15.5623 17.4129 16.4083 16.7186 17.0035 15.8279C17.5987 14.9371 17.9163 13.8898 17.9163 12.8185C17.9163 12.1072 17.7762 11.4028 17.504 10.7457C17.2318 10.0885 16.8328 9.49134 16.3298 8.98836C15.8269 8.48538 15.2297 8.08639 14.5725 7.81417C13.9154 7.54196 13.211 7.40186 12.4997 7.40186ZM12.4997 17.1519C11.6426 17.1519 10.8048 16.8977 10.0922 16.4216C9.37959 15.9454 8.82418 15.2686 8.4962 14.4768C8.16822 13.685 8.0824 12.8137 8.24961 11.9731C8.41681 11.1325 8.82952 10.3604 9.43555 9.75439C10.0416 9.14837 10.8137 8.73566 11.6543 8.56845C12.4949 8.40125 13.3662 8.48706 14.158 8.81504C14.9498 9.14302 15.6266 9.69844 16.1027 10.4111C16.5789 11.1237 16.833 11.9615 16.833 12.8185C16.833 13.9678 16.3765 15.07 15.5638 15.8827C14.7511 16.6953 13.6489 17.1519 12.4997 17.1519ZM14.6663 12.2769H13.0413V10.6519C13.0413 10.5082 12.9843 10.3704 12.8827 10.2688C12.7811 10.1673 12.6433 10.1102 12.4997 10.1102C12.356 10.1102 12.2182 10.1673 12.1167 10.2688C12.0151 10.3704 11.958 10.5082 11.958 10.6519V12.2769H10.333C10.1894 12.2769 10.0516 12.3339 9.94999 12.4355C9.84841 12.5371 9.79134 12.6749 9.79134 12.8185C9.79134 12.9622 9.84841 13.1 9.94999 13.2015C10.0516 13.3031 10.1894 13.3602 10.333 13.3602H11.958V14.9852C11.958 15.1288 12.0151 15.2666 12.1167 15.3682C12.2182 15.4698 12.356 15.5269 12.4997 15.5269C12.6433 15.5269 12.7811 15.4698 12.8827 15.3682C12.9843 15.2666 13.0413 15.1288 13.0413 14.9852V13.3602H14.6663C14.81 13.3602 14.9478 13.3031 15.0494 13.2015C15.1509 13.1 15.208 12.9622 15.208 12.8185C15.208 12.6749 15.1509 12.5371 15.0494 12.4355C14.9478 12.3339 14.81 12.2769 14.6663 12.2769Z" fill="white"/>
</g>
<defs>
<clipPath id="clip0_28_304">
<rect width="13.8889" height="13.8889" fill="white" transform="translate(5.58301 5.87402)"/>
</clipPath>
</defs>
</svg>
