<svg width="26" height="26" viewBox="0 0 26 26" fill="none" xmlns="http://www.w3.org/2000/svg">
<circle cx="12.5273" cy="12.8184" r="12.5" fill="#0081E6"/>
<rect width="13.8889" height="13.8889" transform="translate(5.58301 5.87402)" fill="#0081E6"/>
<path d="M8.24571 17.2201H10.6994C10.7756 17.2206 10.8511 17.206 10.9216 17.1772C10.9921 17.1484 11.0562 17.1059 11.1103 17.0523L15.1149 13.0419L16.7584 11.4331C16.8127 11.3793 16.8557 11.3153 16.8851 11.2448C16.9145 11.1743 16.9296 11.0986 16.9296 11.0222C16.9296 10.9458 16.9145 10.8702 16.8851 10.7997C16.8557 10.7291 16.8127 10.6651 16.7584 10.6113L14.3047 8.1287C14.2509 8.07446 14.1869 8.03141 14.1164 8.00203C14.0459 7.97265 13.9702 7.95752 13.8939 7.95752C13.8175 7.95752 13.7418 7.97265 13.6713 8.00203C13.6008 8.03141 13.5368 8.07446 13.483 8.1287L11.851 9.76643L7.83483 13.7768C7.78119 13.8309 7.73876 13.8951 7.70996 13.9656C7.68116 14.0361 7.66656 14.1116 7.667 14.1877V16.6414C7.667 16.7949 7.72797 16.9421 7.8365 17.0506C7.94503 17.1592 8.09222 17.2201 8.24571 17.2201ZM13.8939 9.35555L15.5316 10.9933L14.7098 11.815L13.0721 10.1773L13.8939 9.35555ZM8.82441 14.425L12.2561 10.9933L13.8939 12.631L10.4621 16.0627H8.82441V14.425Z" fill="white"/>
</svg>
