<svg width="36" height="36" viewBox="0 0 36 36" fill="none" xmlns="http://www.w3.org/2000/svg">
<path d="M24.7935 16.9014H18.856V10.9639C18.856 10.792 18.7153 10.6514 18.5435 10.6514H16.6685C16.4966 10.6514 16.356 10.792 16.356 10.9639V16.9014H10.4185C10.2466 16.9014 10.106 17.042 10.106 17.2139V19.0889C10.106 19.2607 10.2466 19.4014 10.4185 19.4014H16.356V25.3389C16.356 25.5107 16.4966 25.6514 16.6685 25.6514H18.5435C18.7153 25.6514 18.856 25.5107 18.856 25.3389V19.4014H24.7935C24.9653 19.4014 25.106 19.2607 25.106 19.0889V17.2139C25.106 17.042 24.9653 16.9014 24.7935 16.9014Z" fill="#1890FF"/>
<path d="M17.606 0.651367C7.94189 0.651367 0.105957 8.4873 0.105957 18.1514C0.105957 27.8154 7.94189 35.6514 17.606 35.6514C27.27 35.6514 35.106 27.8154 35.106 18.1514C35.106 8.4873 27.27 0.651367 17.606 0.651367ZM17.606 32.6826C9.58252 32.6826 3.07471 26.1748 3.07471 18.1514C3.07471 10.1279 9.58252 3.62012 17.606 3.62012C25.6294 3.62012 32.1372 10.1279 32.1372 18.1514C32.1372 26.1748 25.6294 32.6826 17.606 32.6826Z" fill="#1890FF"/>
</svg>
