<svg width="23" height="23" viewBox="0 0 23 23" fill="none" xmlns="http://www.w3.org/2000/svg">
<path d="M12.4891 11.7287L18.2641 5.96285C18.4367 5.79024 18.5336 5.55613 18.5336 5.31202C18.5336 5.06791 18.4367 4.8338 18.2641 4.66119C18.0914 4.48857 17.8573 4.3916 17.6132 4.3916C17.3691 4.3916 17.135 4.48857 16.9624 4.66119L11.1966 10.4362L5.43073 4.66119C5.25811 4.48857 5.024 4.3916 4.77989 4.3916C4.53578 4.3916 4.30167 4.48857 4.12906 4.66119C3.95645 4.8338 3.85947 5.06791 3.85947 5.31202C3.85947 5.55613 3.95645 5.79024 4.12906 5.96285L9.90406 11.7287L4.12906 17.4945C4.04314 17.5797 3.97495 17.6811 3.92841 17.7928C3.88187 17.9045 3.85791 18.0243 3.85791 18.1454C3.85791 18.2664 3.88187 18.3862 3.92841 18.4979C3.97495 18.6096 4.04314 18.711 4.12906 18.7962C4.21427 18.8821 4.31566 18.9503 4.42736 18.9968C4.53907 19.0434 4.65888 19.0673 4.77989 19.0673C4.9009 19.0673 5.02072 19.0434 5.13242 18.9968C5.24413 18.9503 5.34551 18.8821 5.43073 18.7962L11.1966 13.0212L16.9624 18.7962C17.0476 18.8821 17.149 18.9503 17.2607 18.9968C17.3724 19.0434 17.4922 19.0673 17.6132 19.0673C17.7342 19.0673 17.854 19.0434 17.9658 18.9968C18.0775 18.9503 18.1788 18.8821 18.2641 18.7962C18.35 18.711 18.4182 18.6096 18.4647 18.4979C18.5112 18.3862 18.5352 18.2664 18.5352 18.1454C18.5352 18.0243 18.5112 17.9045 18.4647 17.7928C18.4182 17.6811 18.35 17.5797 18.2641 17.4945L12.4891 11.7287Z" fill="#313749"/>
</svg>
