<svg width="25" height="24" viewBox="0 0 25 24" fill="none" xmlns="http://www.w3.org/2000/svg">
<path d="M22.25 9.67015C22.1868 9.48723 22.072 9.32657 21.9193 9.20765C21.7667 9.08872 21.5828 9.01664 21.39 9.00014L15.7 8.17015L13.15 3.00015C13.0681 2.83107 12.9402 2.68849 12.7811 2.58872C12.6219 2.48895 12.4378 2.43604 12.25 2.43604C12.0621 2.43604 11.8781 2.48895 11.7189 2.58872C11.5597 2.68849 11.4319 2.83107 11.35 3.00015L8.79998 8.16014L3.10998 9.00014C2.9249 9.02645 2.7509 9.10411 2.60773 9.2243C2.46455 9.3445 2.35794 9.50242 2.29998 9.68015C2.24692 9.85382 2.24216 10.0387 2.28621 10.2148C2.33025 10.391 2.42144 10.5519 2.54998 10.6801L6.67998 14.6801L5.67998 20.3601C5.6396 20.5486 5.65453 20.7446 5.72296 20.9248C5.79139 21.1049 5.91041 21.2614 6.06571 21.3755C6.221 21.4896 6.40595 21.5564 6.59831 21.5679C6.79066 21.5794 6.98224 21.535 7.14998 21.4401L12.25 18.7701L17.35 21.4401C17.4903 21.5193 17.6488 21.5607 17.81 21.5601C18.0218 21.5609 18.2284 21.4944 18.4 21.3701C18.5551 21.259 18.6752 21.1058 18.7461 20.9286C18.817 20.7514 18.8357 20.5576 18.8 20.3701L17.8 14.6901L21.93 10.6901C22.0744 10.5678 22.1811 10.407 22.2377 10.2265C22.2944 10.0459 22.2986 9.85302 22.25 9.67015ZM16.1 13.6701C15.9842 13.7826 15.8974 13.9213 15.8469 14.0745C15.7964 14.2278 15.7837 14.3909 15.81 14.5501L16.53 18.7501L12.77 16.7501C12.6238 16.6779 12.463 16.6403 12.3 16.6403C12.1369 16.6403 11.9761 16.6779 11.83 16.7501L8.06998 18.7501L8.78998 14.5501C8.81622 14.3909 8.80354 14.2278 8.75305 14.0745C8.70255 13.9213 8.61572 13.7826 8.49998 13.6701L5.49998 10.6701L9.70998 10.0601C9.87198 10.0376 10.026 9.97569 10.1585 9.8798C10.291 9.78391 10.3979 9.65698 10.47 9.51015L12.25 5.70015L14.13 9.52015C14.202 9.66698 14.309 9.79391 14.4415 9.8898C14.574 9.98569 14.728 10.0476 14.89 10.0701L19.1 10.6801L16.1 13.6701Z" fill="#2E3A59"/>
</svg>
