<svg width="61" height="61" viewBox="0 0 61 61" fill="none" xmlns="http://www.w3.org/2000/svg">
<circle cx="30.7192" cy="30.0557" r="30" fill="#0077FF"/>
<path d="M43.5708 23.1392C43.759 22.5141 43.5708 22.0557 42.6808 22.0557H39.7328C38.9826 22.0557 38.6398 22.4522 38.4516 22.8878C38.4516 22.8878 36.9527 26.543 34.8287 28.913C34.1431 29.6026 33.8299 29.8204 33.4562 29.8204C33.2693 29.8204 32.9978 29.6026 32.9978 28.9775V23.1392C32.9978 22.3891 32.7813 22.0557 32.1562 22.0557H27.5237C27.0559 22.0557 26.7736 22.4025 26.7736 22.7332C26.7736 23.443 27.8356 23.607 27.9445 25.6073V29.9468C27.9445 30.8972 27.7738 31.0706 27.3974 31.0706C26.3985 31.0706 23.968 27.402 22.5256 23.2024C22.2446 22.3864 21.961 22.057 21.2081 22.057H18.2614C17.4185 22.057 17.2505 22.4536 17.2505 22.8891C17.2505 23.6715 18.2493 27.5431 21.9032 32.6636C24.339 36.1602 27.7684 38.0557 30.8926 38.0557C32.7652 38.0557 32.9964 37.6349 32.9964 36.909V34.266C32.9964 33.4245 33.1752 33.2551 33.768 33.2551C34.2036 33.2551 34.9537 33.4756 36.7027 35.16C38.7003 37.1577 39.031 38.0543 40.1535 38.0543H43.1003C43.9418 38.0543 44.3626 37.6335 44.1206 36.8028C43.8558 35.976 42.9013 34.7729 41.635 33.3492C40.9467 32.5373 39.9183 31.6635 39.605 31.2266C39.1681 30.6633 39.2945 30.4146 39.605 29.9145C39.6064 29.9159 43.1971 24.8586 43.5708 23.1392Z" fill="#F4F7FF"/>
</svg>
