<svg width="61" height="61" viewBox="0 0 61 61" fill="none" xmlns="http://www.w3.org/2000/svg">
<circle cx="30.748" cy="30.2354" r="30" fill="#DC3528"/>
<path d="M39.0154 31.3465C38.771 31.3465 38.5154 31.2687 38.2709 31.2132C37.7758 31.1041 37.2893 30.9592 36.8152 30.7798C36.2997 30.5923 35.733 30.602 35.2242 30.8071C34.7155 31.0123 34.3005 31.3984 34.0593 31.891L33.8148 32.3911C32.7325 31.789 31.7379 31.0412 30.8589 30.1686C29.9864 29.2896 29.2386 28.2951 28.6365 27.2127L29.1032 26.9016C29.5959 26.6603 29.9819 26.2454 30.1871 25.7367C30.3922 25.2279 30.402 24.6612 30.2144 24.1457C30.038 23.6706 29.8932 23.1843 29.781 22.69C29.7255 22.4455 29.681 22.1899 29.6477 21.9343C29.5127 21.1516 29.1028 20.4428 28.4916 19.9355C27.8804 19.4282 27.1082 19.1558 26.314 19.1673H22.9803C22.5013 19.1628 22.0271 19.2616 21.5898 19.4569C21.1525 19.6521 20.7623 19.9393 20.446 20.2989C20.1296 20.6585 19.8945 21.082 19.7565 21.5406C19.6186 21.9993 19.5811 22.4822 19.6465 22.9567C20.2385 27.6121 22.3647 31.9376 25.6891 35.2499C29.0135 38.5622 33.3467 40.6726 38.0042 41.2477H38.4265C39.2459 41.2489 40.0371 40.9482 40.649 40.4031C41.0005 40.0887 41.2814 39.7033 41.4729 39.2722C41.6645 38.8412 41.7624 38.3745 41.7602 37.9028V34.5691C41.7466 33.7972 41.4655 33.054 40.9649 32.4663C40.4644 31.8786 39.7753 31.4828 39.0154 31.3465ZM39.5711 38.014C39.5709 38.1717 39.5371 38.3277 39.4719 38.4714C39.4068 38.6151 39.3118 38.7433 39.1932 38.8474C39.0694 38.9552 38.9243 39.0357 38.7673 39.0835C38.6103 39.1314 38.4449 39.1456 38.282 39.1252C34.1203 38.5916 30.2547 36.6877 27.2949 33.7138C24.3351 30.7399 22.4495 26.8653 21.9357 22.7011C21.918 22.5383 21.9335 22.3736 21.9813 22.217C22.029 22.0604 22.108 21.9151 22.2135 21.7899C22.3176 21.6713 22.4458 21.5763 22.5895 21.5112C22.7332 21.446 22.8891 21.4122 23.0469 21.412H26.3806C26.6391 21.4063 26.8914 21.4908 27.0942 21.651C27.297 21.8113 27.4377 22.0372 27.4919 22.2899C27.5363 22.5937 27.5919 22.8937 27.6586 23.19C27.7869 23.7758 27.9578 24.3515 28.1697 24.9125L26.614 25.6348C26.481 25.6958 26.3613 25.7825 26.2619 25.8899C26.1625 25.9973 26.0853 26.1233 26.0347 26.2606C25.9841 26.3979 25.9611 26.5439 25.9671 26.6901C25.9731 26.8364 26.0079 26.98 26.0695 27.1127C27.6688 30.5384 30.4225 33.2921 33.8482 34.8914C34.1187 35.0025 34.4222 35.0025 34.6927 34.8914C34.8313 34.8418 34.9587 34.7652 35.0674 34.666C35.1761 34.5668 35.2641 34.447 35.3261 34.3135L36.0151 32.7578C36.5896 32.9632 37.1759 33.1339 37.7709 33.269C38.0672 33.3357 38.3672 33.3912 38.671 33.4357C38.9237 33.4899 39.1496 33.6305 39.3098 33.8333C39.4701 34.0361 39.5546 34.2885 39.5488 34.5469L39.5711 38.014Z" fill="white"/>
</svg>
