<svg width="31" height="31" viewBox="0 0 31 31" fill="none" xmlns="http://www.w3.org/2000/svg">
<rect x="0.0961914" y="0.151367" width="30" height="30" rx="15" fill="#0081E6"/>
<path fill-rule="evenodd" clip-rule="evenodd" d="M20.6647 9.23346C20.8374 9.16077 21.0264 9.1357 21.2121 9.16086C21.3978 9.18602 21.5733 9.26049 21.7205 9.37652C21.8676 9.49254 21.981 9.64589 22.0487 9.82059C22.1165 9.99529 22.1362 10.185 22.1058 10.3699L20.5207 19.9846C20.3669 20.912 19.3493 21.4438 18.4988 20.9819C17.7873 20.5954 16.7306 19.9999 15.7801 19.3786C15.3048 19.0676 13.849 18.0717 14.028 17.363C14.1817 16.7571 16.6278 14.4801 18.0256 13.1263C18.5743 12.5944 18.3241 12.2876 17.6762 12.7769C16.0666 13.9915 13.4842 15.8387 12.6302 16.3587C11.8768 16.8172 11.484 16.8954 11.0143 16.8172C10.1575 16.6746 9.36283 16.4537 8.71426 16.1847C7.83785 15.8212 7.88048 14.6163 8.71356 14.2655L20.6647 9.23346Z" fill="white"/>
</svg>
