<svg width="21" height="20" viewBox="0 0 21 20" fill="none" xmlns="http://www.w3.org/2000/svg">
<path d="M2.40284 7.38319L9.90284 11.7165C10.0295 11.7897 10.1732 11.8282 10.3195 11.8282C10.4658 11.8282 10.6095 11.7897 10.7362 11.7165L18.2362 7.38319C18.3621 7.31048 18.4668 7.20608 18.5399 7.08035C18.613 6.95462 18.652 6.81196 18.6528 6.66653C18.6534 6.51969 18.6152 6.3753 18.542 6.24798C18.4689 6.12067 18.3633 6.01495 18.2362 5.94153L10.7362 1.61653C10.6095 1.54339 10.4658 1.50488 10.3195 1.50488C10.1732 1.50488 10.0295 1.54339 9.90284 1.61653L2.40284 5.94153C2.27567 6.01495 2.17016 6.12067 2.09699 6.24798C2.02382 6.3753 1.98559 6.51969 1.98617 6.66653C1.98705 6.81196 2.02597 6.95462 2.09907 7.08035C2.17216 7.20608 2.27689 7.31048 2.40284 7.38319ZM10.3195 3.33319L16.1528 6.66653L10.3195 9.99986L4.48617 6.66653L10.3195 3.33319ZM17.4028 9.3082L10.3195 13.3332L3.23617 9.27486C3.14106 9.21976 3.03599 9.18402 2.927 9.1697C2.81802 9.15539 2.70728 9.16277 2.60117 9.19143C2.49505 9.22009 2.39565 9.26946 2.3087 9.33669C2.22174 9.40393 2.14895 9.48771 2.0945 9.5832C1.98586 9.77454 1.9573 10.0011 2.01507 10.2134C2.07283 10.4257 2.21223 10.6066 2.40284 10.7165L9.90284 15.0499C10.0295 15.123 10.1732 15.1615 10.3195 15.1615C10.4658 15.1615 10.6095 15.123 10.7362 15.0499L18.2362 10.7165C18.4268 10.6066 18.5662 10.4257 18.6239 10.2134C18.6817 10.0011 18.6531 9.77454 18.5445 9.5832C18.4901 9.48771 18.4173 9.40393 18.3303 9.33669C18.2434 9.26946 18.144 9.22009 18.0378 9.19143C17.9317 9.16277 17.821 9.15539 17.712 9.1697C17.603 9.18402 17.4979 9.21976 17.4028 9.27486V9.3082ZM17.4028 12.6415L10.3195 16.6665L3.23617 12.6082C3.14106 12.5531 3.03599 12.5174 2.927 12.503C2.81802 12.4887 2.70728 12.4961 2.60117 12.5248C2.49505 12.5534 2.39565 12.6028 2.3087 12.67C2.22174 12.7373 2.14895 12.821 2.0945 12.9165C1.98586 13.1079 1.9573 13.3344 2.01507 13.5467C2.07283 13.7591 2.21223 13.9399 2.40284 14.0499L9.90284 18.3832C10.0295 18.4563 10.1732 18.4948 10.3195 18.4948C10.4658 18.4948 10.6095 18.4563 10.7362 18.3832L18.2362 14.0499C18.4268 13.9399 18.5662 13.7591 18.6239 13.5467C18.6817 13.3344 18.6531 13.1079 18.5445 12.9165C18.4901 12.821 18.4173 12.7373 18.3303 12.67C18.2434 12.6028 18.144 12.5534 18.0378 12.5248C17.9317 12.4961 17.821 12.4887 17.712 12.503C17.603 12.5174 17.4979 12.5531 17.4028 12.6082V12.6415Z" fill="black"/>
</svg>
