<svg width="24" height="24" viewBox="0 0 24 24" fill="none" xmlns="http://www.w3.org/2000/svg">
<path d="M17 22.0002H5C4.20435 22.0002 3.44129 21.6841 2.87868 21.1215C2.31607 20.5589 2 19.7959 2 19.0002V9.00021C2 8.20456 2.31607 7.4415 2.87868 6.87889C3.44129 6.31628 4.20435 6.00021 5 6.00021H6C6.01682 5.15285 6.30235 4.33273 6.81541 3.65814C7.32848 2.98355 8.04255 2.48936 8.85464 2.24684C9.66673 2.00433 10.5349 2.02603 11.3338 2.30881C12.1328 2.59159 12.8213 3.12083 13.3 3.82021C13.7484 4.45936 13.9925 5.21947 14 6.00021H17C17.2652 6.00021 17.5196 6.10557 17.7071 6.2931C17.8946 6.48064 18 6.73499 18 7.00021V10.0002C18.8474 10.017 19.6675 10.3026 20.3421 10.8156C21.0167 11.3287 21.5109 12.0428 21.7534 12.8548C21.9959 13.6669 21.9742 14.5351 21.6914 15.334C21.4086 16.133 20.8794 16.8215 20.18 17.3002C19.5409 17.7487 18.7807 17.9927 18 18.0002V21.0002C18 21.2654 17.8946 21.5198 17.7071 21.7073C17.5196 21.8949 17.2652 22.0002 17 22.0002ZM5 8.00021C4.73478 8.00021 4.48043 8.10557 4.29289 8.2931C4.10536 8.48064 4 8.73499 4 9.00021V19.0002C4 19.2654 4.10536 19.5198 4.29289 19.7073C4.48043 19.8949 4.73478 20.0002 5 20.0002H16V16.8202C15.9991 16.6599 16.0368 16.5017 16.1099 16.359C16.183 16.2162 16.2894 16.0932 16.42 16.0002C16.5502 15.9073 16.7008 15.8471 16.8592 15.8245C17.0175 15.8018 17.179 15.8175 17.33 15.8702C17.615 15.9865 17.9254 16.0264 18.2305 15.9861C18.5357 15.9457 18.825 15.8265 19.07 15.6402C19.3139 15.4915 19.523 15.2923 19.6834 15.056C19.8439 14.8197 19.9518 14.5517 20 14.2702C20.0386 13.9863 20.0157 13.6974 19.9329 13.423C19.85 13.1487 19.7092 12.8954 19.52 12.6802C19.2641 12.3693 18.9155 12.1483 18.5252 12.0494C18.1349 11.9504 17.7231 11.9788 17.35 12.1302C17.199 12.1829 17.0375 12.1986 16.8792 12.176C16.7208 12.1533 16.5702 12.0931 16.44 12.0002C16.3094 11.9072 16.203 11.7842 16.1299 11.6415C16.0568 11.4987 16.0191 11.3406 16.02 11.1802V8.00021H12.82C12.6557 8.00952 12.4915 7.97812 12.3422 7.90879C12.1929 7.83946 12.0631 7.73434 11.9641 7.60277C11.8652 7.4712 11.8003 7.31724 11.7752 7.15456C11.75 6.99188 11.7654 6.82551 11.82 6.67021C11.9363 6.38522 11.9762 6.07483 11.9359 5.76969C11.8955 5.46455 11.7763 5.17521 11.59 4.93021C11.4424 4.67937 11.2402 4.46498 10.9984 4.3029C10.7566 4.14083 10.4815 4.03523 10.1934 3.99393C9.90527 3.95264 9.61155 3.9767 9.33399 4.06434C9.05644 4.15198 8.80216 4.30095 8.59 4.50021C8.39298 4.69562 8.23877 4.9299 8.1372 5.18814C8.03562 5.44638 7.9889 5.72293 8 6.00021C8.00232 6.22958 8.04637 6.45662 8.13 6.67021C8.18287 6.82143 8.19863 6.98313 8.17597 7.14171C8.1533 7.3003 8.09287 7.45111 7.99976 7.58147C7.90665 7.71182 7.78358 7.8179 7.64093 7.89077C7.49827 7.96364 7.34019 8.00117 7.18 8.00021H5Z" fill="#9BABC5"/>
</svg>
