<svg width="19" height="18" viewBox="0 0 19 18" fill="none" xmlns="http://www.w3.org/2000/svg">
<path d="M9.12402 2.46094C5.51348 2.46094 2.58496 5.38945 2.58496 9C2.58496 12.6105 5.51348 15.5391 9.12402 15.5391C12.7346 15.5391 15.6631 12.6105 15.6631 9C15.6631 5.38945 12.7346 2.46094 9.12402 2.46094ZM9.12402 13.5703C8.73555 13.5703 8.4209 13.2557 8.4209 12.8672C8.4209 12.4787 8.73555 12.1641 9.12402 12.1641C9.5125 12.1641 9.82715 12.4787 9.82715 12.8672C9.82715 13.2557 9.5125 13.5703 9.12402 13.5703ZM10.2297 9.71191C10.0705 9.77339 9.93352 9.88141 9.83663 10.0219C9.73974 10.1624 9.68743 10.3288 9.68652 10.4994V10.8984C9.68652 10.9758 9.62324 11.0391 9.5459 11.0391H8.70215C8.6248 11.0391 8.56152 10.9758 8.56152 10.8984V10.5205C8.56152 10.1145 8.6793 9.71367 8.91133 9.37969C9.13809 9.05273 9.45449 8.80313 9.82715 8.66074C10.4248 8.43047 10.8115 7.92949 10.8115 7.38281C10.8115 6.60762 10.0539 5.97656 9.12402 5.97656C8.19414 5.97656 7.43652 6.60762 7.43652 7.38281V7.51641C7.43652 7.59375 7.37324 7.65703 7.2959 7.65703H6.45215C6.3748 7.65703 6.31152 7.59375 6.31152 7.51641V7.38281C6.31152 6.69199 6.61387 6.04688 7.1623 5.56699C7.68965 5.10469 8.38574 4.85156 9.12402 4.85156C9.8623 4.85156 10.5584 5.10645 11.0857 5.56699C11.6342 6.04688 11.9365 6.69199 11.9365 7.38281C11.9365 8.39883 11.2668 9.31289 10.2297 9.71191Z" fill="#E6F7FF"/>
<path d="M9.12402 1.125C4.7752 1.125 1.24902 4.65117 1.24902 9C1.24902 13.3488 4.7752 16.875 9.12402 16.875C13.4729 16.875 16.999 13.3488 16.999 9C16.999 4.65117 13.4729 1.125 9.12402 1.125ZM9.12402 15.5391C5.51348 15.5391 2.58496 12.6105 2.58496 9C2.58496 5.38945 5.51348 2.46094 9.12402 2.46094C12.7346 2.46094 15.6631 5.38945 15.6631 9C15.6631 12.6105 12.7346 15.5391 9.12402 15.5391Z" fill="#1890FF"/>
<path d="M8.4209 12.8672C8.4209 13.0537 8.49498 13.2325 8.62684 13.3644C8.7587 13.4962 8.93754 13.5703 9.12402 13.5703C9.3105 13.5703 9.48935 13.4962 9.62121 13.3644C9.75307 13.2325 9.82715 13.0537 9.82715 12.8672C9.82715 12.6807 9.75307 12.5019 9.62121 12.37C9.48935 12.2381 9.3105 12.1641 9.12402 12.1641C8.93754 12.1641 8.7587 12.2381 8.62684 12.37C8.49498 12.5019 8.4209 12.6807 8.4209 12.8672ZM11.0857 5.56699C10.5584 5.10645 9.8623 4.85156 9.12402 4.85156C8.38574 4.85156 7.68965 5.10469 7.1623 5.56699C6.61387 6.04688 6.31152 6.69199 6.31152 7.38281V7.51641C6.31152 7.59375 6.3748 7.65703 6.45215 7.65703H7.2959C7.37324 7.65703 7.43652 7.59375 7.43652 7.51641V7.38281C7.43652 6.60762 8.19414 5.97656 9.12402 5.97656C10.0539 5.97656 10.8115 6.60762 10.8115 7.38281C10.8115 7.92949 10.4248 8.43047 9.82715 8.66074C9.45449 8.80313 9.13809 9.05273 8.91133 9.37969C8.6793 9.71367 8.56152 10.1145 8.56152 10.5205V10.8984C8.56152 10.9758 8.6248 11.0391 8.70215 11.0391H9.5459C9.62324 11.0391 9.68652 10.9758 9.68652 10.8984V10.4994C9.68743 10.3288 9.73974 10.1624 9.83663 10.0219C9.93352 9.88141 10.0705 9.77339 10.2297 9.71191C11.2668 9.31289 11.9365 8.39883 11.9365 7.38281C11.9365 6.69199 11.6342 6.04688 11.0857 5.56699Z" fill="#1890FF"/>
</svg>
