<svg width="25" height="25" viewBox="0 0 25 25" fill="none" xmlns="http://www.w3.org/2000/svg">
<path d="M14.9285 9.10836L10.6385 13.4084L8.9885 11.7584C8.89885 11.6537 8.78854 11.5687 8.66447 11.5086C8.54041 11.4486 8.40527 11.4149 8.26755 11.4096C8.12983 11.4042 7.9925 11.4274 7.86418 11.4777C7.73585 11.528 7.6193 11.6043 7.52185 11.7017C7.4244 11.7992 7.34814 11.9157 7.29786 12.044C7.24759 12.1724 7.22438 12.3097 7.2297 12.4474C7.23502 12.5851 7.26875 12.7203 7.32877 12.8443C7.3888 12.9684 7.47382 13.0787 7.5785 13.1684L9.9285 15.5284C10.0219 15.621 10.1328 15.6944 10.2546 15.7441C10.3764 15.7939 10.5069 15.8191 10.6385 15.8184C10.9008 15.8173 11.1522 15.7131 11.3385 15.5284L16.3385 10.5284C16.4322 10.4354 16.5066 10.3248 16.5574 10.2029C16.6082 10.0811 16.6343 9.95037 16.6343 9.81836C16.6343 9.68635 16.6082 9.55564 16.5574 9.43378C16.5066 9.31192 16.4322 9.20132 16.3385 9.10836C16.1511 8.92211 15.8977 8.81757 15.6335 8.81757C15.3693 8.81757 15.1159 8.92211 14.9285 9.10836ZM12.2085 2.31836C10.2307 2.31836 8.29729 2.90485 6.6528 4.00366C5.00831 5.10248 3.72658 6.66426 2.96971 8.49152C2.21283 10.3188 2.0148 12.3295 2.40065 14.2693C2.7865 16.2091 3.73891 17.9909 5.13743 19.3894C6.53596 20.788 8.31779 21.7404 10.2576 22.1262C12.1974 22.5121 14.2081 22.314 16.0353 21.5572C17.8626 20.8003 19.4244 19.5186 20.5232 17.8741C21.622 16.2296 22.2085 14.2962 22.2085 12.3184C22.2085 11.0051 21.9498 9.70478 21.4473 8.49152C20.9447 7.27827 20.2082 6.17588 19.2796 5.24729C18.351 4.31871 17.2486 3.58211 16.0353 3.07956C14.8221 2.57702 13.5217 2.31836 12.2085 2.31836ZM12.2085 20.3184C10.6263 20.3184 9.07953 19.8492 7.76394 18.9701C6.44835 18.0911 5.42297 16.8416 4.81746 15.3798C4.21196 13.918 4.05354 12.3095 4.36222 10.7576C4.6709 9.20579 5.43283 7.78033 6.55165 6.66151C7.67047 5.54269 9.09593 4.78076 10.6478 4.47208C12.1996 4.1634 13.8082 4.32182 15.27 4.92732C16.7318 5.53282 17.9812 6.5582 18.8603 7.8738C19.7393 9.18939 20.2085 10.7361 20.2085 12.3184C20.2085 14.4401 19.3656 16.4749 17.8654 17.9752C16.3651 19.4755 14.3302 20.3184 12.2085 20.3184Z" fill="#4CAF50"/>
</svg>
