<svg width="25" height="25" viewBox="0 0 25 25" fill="none" xmlns="http://www.w3.org/2000/svg">
<path d="M19.7085 2.31836H5.7085C4.91285 2.31836 4.14979 2.63443 3.58718 3.19704C3.02457 3.75965 2.7085 4.52271 2.7085 5.31836V15.3184C2.7085 16.114 3.02457 16.8771 3.58718 17.4397C4.14979 18.0023 4.91285 18.3184 5.7085 18.3184H8.3485L7.7685 19.3184C7.59296 19.6224 7.50055 19.9673 7.50055 20.3184C7.50055 20.6694 7.59296 21.0143 7.7685 21.3184C7.94554 21.625 8.20085 21.8792 8.50832 22.0549C8.81578 22.2306 9.16439 22.3215 9.5185 22.3184H15.9785C16.3292 22.318 16.6737 22.2254 16.9773 22.0499C17.281 21.8744 17.5331 21.6221 17.7085 21.3184C17.884 21.0143 17.9764 20.6694 17.9764 20.3184C17.9764 19.9673 17.884 19.6224 17.7085 19.3184L17.1185 18.3184H19.7085C20.5041 18.3184 21.2672 18.0023 21.8298 17.4397C22.3924 16.8771 22.7085 16.114 22.7085 15.3184V5.31836C22.7085 4.52271 22.3924 3.75965 21.8298 3.19704C21.2672 2.63443 20.5041 2.31836 19.7085 2.31836ZM9.4785 20.3184L10.7085 18.3184H14.7085L15.9085 20.3184H9.4785ZM20.7085 15.3184C20.7085 15.5836 20.6031 15.8379 20.4156 16.0255C20.2281 16.213 19.9737 16.3184 19.7085 16.3184H5.7085C5.44328 16.3184 5.18893 16.213 5.00139 16.0255C4.81385 15.8379 4.7085 15.5836 4.7085 15.3184V14.3184H20.7085V15.3184ZM20.7085 12.3184H4.7085V5.31836C4.7085 5.05314 4.81385 4.79879 5.00139 4.61125C5.18893 4.42372 5.44328 4.31836 5.7085 4.31836H19.7085C19.9737 4.31836 20.2281 4.42372 20.4156 4.61125C20.6031 4.79879 20.7085 5.05314 20.7085 5.31836V12.3184Z" fill="#FF9B0A"/>
</svg>
