<svg width="25" height="25" viewBox="0 0 25 25" fill="none" xmlns="http://www.w3.org/2000/svg">
<path d="M18.2887 12.7386L12.1087 18.9286C11.2985 19.6486 10.2438 20.0318 9.16038 20C8.07695 19.9681 7.04666 19.5234 6.28023 18.757C5.5138 17.9906 5.06917 16.9603 5.03727 15.8768C5.00538 14.7934 5.38864 13.7388 6.10866 12.9286L14.1087 4.92857C14.5863 4.47487 15.2199 4.2219 15.8787 4.2219C16.5374 4.2219 17.171 4.47487 17.6487 4.92857C18.114 5.40016 18.3749 6.03604 18.3749 6.69857C18.3749 7.3611 18.114 7.99698 17.6487 8.46857L10.7487 15.3586C10.6804 15.4321 10.5983 15.4915 10.507 15.5333C10.4158 15.5751 10.3172 15.5985 10.2169 15.6022C10.1167 15.606 10.0166 15.5899 9.92254 15.5549C9.82847 15.52 9.7422 15.4669 9.66866 15.3986C9.59512 15.3303 9.53575 15.2482 9.49394 15.1569C9.45213 15.0657 9.4287 14.9671 9.42498 14.8669C9.42127 14.7666 9.43734 14.6665 9.47229 14.5725C9.50723 14.4784 9.56037 14.3921 9.62866 14.3186L14.7587 9.19857C14.947 9.01027 15.0527 8.75487 15.0527 8.48857C15.0527 8.22227 14.947 7.96688 14.7587 7.77857C14.5704 7.59027 14.315 7.48448 14.0487 7.48448C13.7824 7.48448 13.527 7.59027 13.3387 7.77857L8.20866 12.9186C7.95196 13.1733 7.74822 13.4763 7.60919 13.8101C7.47015 14.1439 7.39857 14.502 7.39857 14.8636C7.39857 15.2252 7.47015 15.5832 7.60919 15.917C7.74822 16.2509 7.95196 16.5539 8.20866 16.8086C8.73303 17.3081 9.42946 17.5867 10.1537 17.5867C10.8778 17.5867 11.5743 17.3081 12.0987 16.8086L18.9887 9.90857C19.7835 9.05552 20.2163 7.92724 20.1957 6.76144C20.1751 5.59563 19.7029 4.48332 18.8784 3.65884C18.0539 2.83436 16.9416 2.36209 15.7758 2.34152C14.61 2.32095 13.4817 2.75369 12.6287 3.54857L4.62866 11.5486C3.54986 12.7434 2.97368 14.3084 3.02019 15.9175C3.06669 17.5267 3.73229 19.0558 4.8783 20.1863C6.0243 21.3169 7.56233 21.9616 9.17194 21.9863C10.7815 22.0109 12.3386 21.4135 13.5187 20.3186L19.7087 14.1386C19.8019 14.0453 19.8759 13.9346 19.9263 13.8128C19.9768 13.691 20.0027 13.5604 20.0027 13.4286C20.0027 13.2967 19.9768 13.1661 19.9263 13.0443C19.8759 12.9225 19.8019 12.8118 19.7087 12.7186C19.6154 12.6253 19.5047 12.5514 19.3829 12.5009C19.2611 12.4505 19.1305 12.4245 18.9987 12.4245C18.8668 12.4245 18.7362 12.4505 18.6144 12.5009C18.4926 12.5514 18.3819 12.6253 18.2887 12.7186V12.7386Z" fill="#FF9B0A"/>
</svg>
