<svg width="25" height="25" viewBox="0 0 25 25" fill="none" xmlns="http://www.w3.org/2000/svg">
<path d="M21.6187 8.95849C21.6187 8.95849 21.6187 8.95849 21.6187 8.90848C20.9141 6.98471 19.6356 5.32377 17.9562 4.15035C16.2768 2.97693 14.2774 2.34766 12.2287 2.34766C10.1799 2.34766 8.18063 2.97693 6.5012 4.15035C4.82178 5.32377 3.54329 6.98471 2.83869 8.90848C2.83869 8.90848 2.83869 8.90848 2.83869 8.95849C2.05182 11.1294 2.05182 13.5076 2.83869 15.6785C2.83869 15.6785 2.83869 15.6785 2.83869 15.7285C3.54329 17.6523 4.82178 19.3132 6.5012 20.4866C8.18063 21.66 10.1799 22.2893 12.2287 22.2893C14.2774 22.2893 16.2768 21.66 17.9562 20.4866C19.6356 19.3132 20.9141 17.6523 21.6187 15.7285C21.6187 15.7285 21.6187 15.7285 21.6187 15.6785C22.4056 13.5076 22.4056 11.1294 21.6187 8.95849ZM4.46869 14.3185C4.12192 13.0077 4.12192 11.6293 4.46869 10.3185H6.32869C6.16872 11.647 6.16872 12.99 6.32869 14.3185H4.46869ZM5.28869 16.3185H6.68869C6.92341 17.2103 7.2589 18.0725 7.68869 18.8885C6.70799 18.2204 5.88819 17.3425 5.28869 16.3185ZM6.68869 8.31848H5.28869C5.87956 7.29757 6.68888 6.41995 7.65869 5.74848C7.23925 6.56573 6.91383 7.4279 6.68869 8.31848ZM11.2087 20.0185C9.98046 19.1172 9.11784 17.8037 8.77869 16.3185H11.2087V20.0185ZM11.2087 14.3185H8.34869C8.16208 12.9917 8.16208 11.6453 8.34869 10.3185H11.2087V14.3185ZM11.2087 8.31848H8.77869C9.11784 6.83325 9.98046 5.5198 11.2087 4.61848V8.31848ZM19.1287 8.31848H17.7287C17.494 7.42664 17.1585 6.56442 16.7287 5.74848C17.7094 6.41655 18.5292 7.29443 19.1287 8.31848ZM13.2087 4.61848C14.4369 5.5198 15.2995 6.83325 15.6387 8.31848H13.2087V4.61848ZM13.2087 20.0185V16.3185H15.6387C15.2995 17.8037 14.4369 19.1172 13.2087 20.0185ZM16.0687 14.3185H13.2087V10.3185H16.0687C16.2553 11.6453 16.2553 12.9917 16.0687 14.3185ZM16.7587 18.8885C17.1885 18.0725 17.524 17.2103 17.7587 16.3185H19.1587C18.5592 17.3425 17.7394 18.2204 16.7587 18.8885ZM19.9487 14.3185H18.0887C18.17 13.6549 18.2101 12.987 18.2087 12.3185C18.2098 11.65 18.1697 10.9821 18.0887 10.3185H19.9487C20.2955 11.6293 20.2955 13.0077 19.9487 14.3185Z" fill="#FF9B0A"/>
</svg>
