<svg width="24" height="24" viewBox="0 0 24 24" fill="none" xmlns="http://www.w3.org/2000/svg">
<path d="M23.9268 10.0749L23.9205 10.0499L20.4143 1.14053C20.258 0.637402 19.7924 0.290527 19.2643 0.290527H5.05177C4.52052 0.290527 4.04864 0.643653 3.89864 1.15303L0.620514 9.97178L0.61114 9.99365L0.604889 10.0187C0.564264 10.1718 0.551764 10.328 0.573639 10.4812C0.570514 10.5312 0.567389 10.5812 0.567389 10.6312V22.0655C0.568216 22.5692 0.768659 23.052 1.1248 23.4081C1.48094 23.7643 1.96373 23.9647 2.46739 23.9655H22.0674C23.1143 23.9655 23.9674 23.1124 23.9705 22.0655V10.6312C23.9705 10.5905 23.9705 10.5499 23.9674 10.5155C23.9799 10.3624 23.9674 10.2155 23.9268 10.0749ZM14.683 8.73115L14.6736 9.22178C14.6486 10.6249 13.6799 11.5687 12.2643 11.5687C11.5736 11.5687 10.9799 11.3468 10.5518 10.9249C10.1236 10.503 9.88927 9.91553 9.87677 9.22178L9.86739 8.73115H3.43614L5.92052 2.69053H18.3955L20.9486 8.73115H14.683ZM2.96426 11.1312H7.87989C8.63927 12.9155 10.2549 13.9687 12.2674 13.9687C13.3205 13.9687 14.2986 13.6749 15.0893 13.1187C15.783 12.6312 16.3236 11.9499 16.6736 11.1312H21.5643V21.5655H2.96426V11.1312Z" fill="#1890FF"/>
</svg>
