<svg width="35" height="35" viewBox="0 0 35 35" fill="none" xmlns="http://www.w3.org/2000/svg">
<rect x="1.13379" y="0.623047" width="33" height="33" rx="16.5" fill="white"/>
<rect x="1.13379" y="0.623047" width="33" height="33" rx="16.5" stroke="#FF4D4F"/>
<g clip-path="url(#clip0_87_2202)">
<rect width="14" height="14" transform="translate(10.6338 10.1279)" fill="white"/>
<g clip-path="url(#clip1_87_2202)">
<path d="M15.2588 12.002H15.1338C15.2025 12.002 15.2588 11.9457 15.2588 11.877V12.002H20.0088V11.877C20.0088 11.9457 20.065 12.002 20.1338 12.002H20.0088V13.127H21.1338V11.877C21.1338 11.3254 20.6854 10.877 20.1338 10.877H15.1338C14.5822 10.877 14.1338 11.3254 14.1338 11.877V13.127H15.2588V12.002ZM23.1338 13.127H12.1338C11.8572 13.127 11.6338 13.3504 11.6338 13.627V14.127C11.6338 14.1957 11.69 14.252 11.7588 14.252H12.7025L13.0885 22.4238C13.1135 22.9566 13.5541 23.377 14.0869 23.377H21.1807C21.715 23.377 22.1541 22.9582 22.1791 22.4238L22.565 14.252H23.5088C23.5775 14.252 23.6338 14.1957 23.6338 14.127V13.627C23.6338 13.3504 23.4104 13.127 23.1338 13.127ZM21.0604 22.252H14.2072L13.8291 14.252H21.4385L21.0604 22.252Z" fill="#FF4D4F" fill-opacity="0.85"/>
</g>
</g>
<defs>
<clipPath id="clip0_87_2202">
<rect width="14" height="14" fill="white" transform="translate(10.6338 10.1279)"/>
</clipPath>
<clipPath id="clip1_87_2202">
<rect width="14" height="14" fill="white" transform="translate(10.6338 10.1279)"/>
</clipPath>
</defs>
</svg>
