<svg width="20" height="20" viewBox="0 0 20 20" fill="none" xmlns="http://www.w3.org/2000/svg">
<path d="M17.2749 6.09346C17.3812 5.74037 17.2749 5.48145 16.7722 5.48145H15.107C14.6833 5.48145 14.4897 5.70544 14.3834 5.95146C14.3834 5.95146 13.5368 8.01605 12.337 9.35472C11.9498 9.74425 11.7729 9.86726 11.5618 9.86726C11.4562 9.86726 11.3028 9.74426 11.3028 9.39117V6.09346C11.3028 5.66976 11.1806 5.48145 10.8275 5.48145H8.21091C7.94667 5.48145 7.78721 5.67735 7.78721 5.86414C7.78721 6.26506 8.38707 6.3577 8.44858 7.48756V9.93864C8.44858 10.4755 8.35214 10.5734 8.13953 10.5734C7.57536 10.5734 6.20251 8.50125 5.38777 6.12914C5.22907 5.66824 5.06885 5.4822 4.64363 5.4822H2.97921C2.50312 5.4822 2.4082 5.7062 2.4082 5.95222C2.4082 6.39415 2.97238 8.58098 5.0362 11.4732C6.41209 13.4482 8.3491 14.5188 10.1138 14.5188C11.1715 14.5188 11.3021 14.2812 11.3021 13.8711V12.3783C11.3021 11.903 11.4031 11.8073 11.7379 11.8073C11.984 11.8073 12.4077 11.9318 13.3955 12.8833C14.5239 14.0116 14.7107 14.5181 15.3447 14.5181H17.0091C17.4845 14.5181 17.7221 14.2804 17.5854 13.8112C17.4359 13.3442 16.8967 12.6646 16.1815 11.8605C15.7927 11.4018 15.2118 10.9083 15.0349 10.6615C14.7881 10.3434 14.8595 10.2029 15.0349 9.92042C15.0357 9.92118 17.0638 7.06462 17.2749 6.09346Z" fill="#7992B2"/>
</svg>
