<svg width="25" height="26" viewBox="0 0 25 26" fill="none" xmlns="http://www.w3.org/2000/svg">
<rect x="0.5" y="1.33594" width="24" height="24" rx="12" fill="#E5F1FB"/>
<rect x="0.5" y="1.33594" width="24" height="24" rx="12" stroke="#4CAF50"/>
<path d="M14.132 11.4099L11.558 13.9899L10.568 12.9999C10.5142 12.9371 10.448 12.8861 10.3736 12.8501C10.2991 12.8141 10.2181 12.7938 10.1354 12.7907C10.0528 12.7875 9.9704 12.8014 9.89341 12.8316C9.81641 12.8617 9.74648 12.9075 9.68801 12.9659C9.62954 13.0244 9.58378 13.0943 9.55362 13.1713C9.52345 13.2483 9.50953 13.3307 9.51272 13.4134C9.51591 13.496 9.53615 13.5771 9.57217 13.6515C9.60818 13.726 9.65919 13.7921 9.722 13.8459L11.132 15.2619C11.1881 15.3175 11.2546 15.3615 11.3277 15.3914C11.4008 15.4213 11.479 15.4364 11.558 15.4359C11.7154 15.4353 11.8662 15.3728 11.978 15.2619L14.978 12.2619C15.0342 12.2062 15.0789 12.1398 15.1093 12.0667C15.1398 11.9936 15.1555 11.9151 15.1555 11.8359C15.1555 11.7567 15.1398 11.6783 15.1093 11.6052C15.0789 11.5321 15.0342 11.4657 14.978 11.4099C14.8656 11.2982 14.7135 11.2355 14.555 11.2355C14.3965 11.2355 14.2444 11.2982 14.132 11.4099ZM12.5 7.33594C11.3133 7.33594 10.1533 7.68783 9.16658 8.34712C8.17989 9.00641 7.41085 9.94348 6.95673 11.0398C6.5026 12.1362 6.38378 13.3426 6.61529 14.5065C6.8468 15.6704 7.41825 16.7395 8.25736 17.5786C9.09648 18.4177 10.1656 18.9891 11.3295 19.2206C12.4933 19.4522 13.6997 19.3333 14.7961 18.8792C15.8925 18.4251 16.8295 17.6561 17.4888 16.6694C18.1481 15.6827 18.5 14.5226 18.5 13.3359C18.5 12.548 18.3448 11.7678 18.0433 11.0398C17.7417 10.3119 17.2998 9.65045 16.7426 9.0933C16.1855 8.53614 15.5241 8.09419 14.7961 7.79266C14.0681 7.49113 13.2879 7.33594 12.5 7.33594ZM12.5 18.1359C11.5507 18.1359 10.6226 17.8544 9.83326 17.327C9.04391 16.7996 8.42868 16.0499 8.06538 15.1728C7.70208 14.2957 7.60702 13.3306 7.79223 12.3995C7.97744 11.4684 8.4346 10.6131 9.10589 9.94182C9.77718 9.27053 10.6325 8.81338 11.5636 8.62817C12.4947 8.44296 13.4598 8.53801 14.3369 8.90132C15.214 9.26462 15.9636 9.87984 16.4911 10.6692C17.0185 11.4586 17.3 12.3866 17.3 13.3359C17.3 14.609 16.7943 15.8299 15.8941 16.73C14.9939 17.6302 13.773 18.1359 12.5 18.1359Z" fill="#4CAF50"/>
</svg>
