<svg width="35" height="35" viewBox="0 0 35 35" fill="none" xmlns="http://www.w3.org/2000/svg">
<rect x="0.969238" y="0.633789" width="33" height="33" rx="16.5" fill="#E5F1FB"/>
<rect x="0.969238" y="0.633789" width="33" height="33" rx="16.5" stroke="#0081E6"/>
<g clip-path="url(#clip0_87_1411)">
<g clip-path="url(#clip1_87_1411)">
<path d="M13.4958 20.8872C13.5271 20.8872 13.5583 20.8841 13.5896 20.8794L16.2177 20.4185C16.2489 20.4122 16.2786 20.3981 16.3005 20.3747L22.9239 13.7513C22.9384 13.7368 22.9499 13.7196 22.9577 13.7007C22.9656 13.6818 22.9696 13.6616 22.9696 13.6411C22.9696 13.6206 22.9656 13.6004 22.9577 13.5815C22.9499 13.5626 22.9384 13.5454 22.9239 13.531L20.3271 10.9325C20.2974 10.9028 20.2583 10.8872 20.2161 10.8872C20.1739 10.8872 20.1349 10.9028 20.1052 10.9325L13.4817 17.556C13.4583 17.5794 13.4442 17.6075 13.438 17.6388L12.9771 20.2669C12.9619 20.3506 12.9673 20.4367 12.9929 20.5179C13.0185 20.599 13.0634 20.6727 13.1239 20.7325C13.2271 20.8325 13.3567 20.8872 13.4958 20.8872ZM14.5489 18.1622L20.2161 12.4966L21.3614 13.6419L15.6942 19.3075L14.3052 19.5528L14.5489 18.1622ZM23.2192 22.1997H11.7192C11.4427 22.1997 11.2192 22.4231 11.2192 22.6997V23.2622C11.2192 23.331 11.2755 23.3872 11.3442 23.3872H23.5942C23.663 23.3872 23.7192 23.331 23.7192 23.2622V22.6997C23.7192 22.4231 23.4958 22.1997 23.2192 22.1997Z" fill="#0081E6" fill-opacity="0.85"/>
</g>
</g>
<defs>
<clipPath id="clip0_87_1411">
<rect width="14" height="14" fill="white" transform="translate(10.4692 10.1387)"/>
</clipPath>
<clipPath id="clip1_87_1411">
<rect width="14" height="14" fill="white" transform="translate(10.4692 10.1387)"/>
</clipPath>
</defs>
</svg>
