<svg width="26" height="26" viewBox="0 0 26 26" fill="none" xmlns="http://www.w3.org/2000/svg">
<circle cx="12.5273" cy="12.8184" r="12.5" fill="#0081E6"/>
<g clip-path="url(#clip0_28_290)">
<rect width="13.8889" height="13.8889" transform="translate(5.58301 5.87402)" fill="#0081E6"/>
<path d="M7.0937 12.0553L11.9687 14.872C12.051 14.9195 12.1444 14.9446 12.2395 14.9446C12.3346 14.9446 12.428 14.9195 12.5104 14.872L17.3854 12.0553C17.4674 12.0077 17.5356 11.9394 17.5829 11.8571C17.6303 11.7749 17.6552 11.6817 17.6552 11.5868C17.6552 11.4919 17.6303 11.3987 17.5829 11.3164C17.5356 11.2342 17.4674 11.1659 17.3854 11.1182L12.5104 8.30157C12.428 8.25403 12.3346 8.229 12.2395 8.229C12.1444 8.229 12.051 8.25403 11.9687 8.30157L7.0937 11.1182C7.01161 11.1659 6.94348 11.2342 6.89612 11.3164C6.84875 11.3987 6.82382 11.4919 6.82382 11.5868C6.82382 11.6817 6.84875 11.7749 6.89612 11.8571C6.94348 11.9394 7.01161 12.0077 7.0937 12.0553ZM12.2395 9.39574L16.0312 11.5624L12.2395 13.7562L8.44786 11.5841L12.2395 9.39574ZM16.8437 13.6153L12.2395 16.2749L7.63536 13.6153C7.57386 13.5793 7.50586 13.5557 7.43524 13.546C7.36462 13.5363 7.29278 13.5407 7.22384 13.5588C7.1549 13.5769 7.09022 13.6084 7.03349 13.6516C6.97677 13.6948 6.92912 13.7487 6.89328 13.8103C6.85747 13.8721 6.83424 13.9404 6.82493 14.0113C6.81562 14.0821 6.82042 14.1541 6.83905 14.2231C6.85768 14.2921 6.88977 14.3567 6.93347 14.4132C6.97717 14.4697 7.03163 14.517 7.0937 14.5524L11.9687 17.3691C12.051 17.4166 12.1444 17.4416 12.2395 17.4416C12.3346 17.4416 12.428 17.4166 12.5104 17.3691L17.3854 14.5524C17.4474 14.517 17.5019 14.4697 17.5456 14.4132C17.5893 14.3567 17.6214 14.2921 17.64 14.2231C17.6586 14.1541 17.6634 14.0821 17.6541 14.0113C17.6448 13.9404 17.6216 13.8721 17.5858 13.8103C17.5499 13.7487 17.5023 13.6948 17.4456 13.6516C17.3888 13.6084 17.3242 13.5769 17.2552 13.5588C17.1863 13.5407 17.1144 13.5363 17.0438 13.546C16.9732 13.5557 16.9052 13.5793 16.8437 13.6153Z" fill="white"/>
</g>
<defs>
<clipPath id="clip0_28_290">
<rect width="13.8889" height="13.8889" fill="white" transform="translate(5.58301 5.87402)"/>
</clipPath>
</defs>
</svg>
