<svg width="21" height="21" viewBox="0 0 21 21" fill="none" xmlns="http://www.w3.org/2000/svg">
<path d="M10.9603 6.13151C10.7393 6.13151 10.5273 6.21931 10.371 6.37559C10.2148 6.53187 10.127 6.74383 10.127 6.96484V10.2982C10.127 10.5192 10.2148 10.7312 10.371 10.8874C10.5273 11.0437 10.7393 11.1315 10.9603 11.1315C11.1813 11.1315 11.3933 11.0437 11.5495 10.8874C11.7058 10.7312 11.7936 10.5192 11.7936 10.2982V6.96484C11.7936 6.74383 11.7058 6.53187 11.5495 6.37559C11.3933 6.21931 11.1813 6.13151 10.9603 6.13151ZM11.727 13.3148C11.7087 13.2617 11.6835 13.2113 11.652 13.1648L11.552 13.0398C11.4348 12.9242 11.286 12.8459 11.1243 12.8147C10.9626 12.7836 10.7954 12.801 10.6436 12.8648C10.5426 12.907 10.4496 12.9662 10.3686 13.0398C10.2914 13.1177 10.2303 13.2101 10.1888 13.3116C10.1473 13.4131 10.1263 13.5218 10.127 13.6315C10.1283 13.7404 10.1509 13.848 10.1936 13.9482C10.2311 14.0516 10.2908 14.1455 10.3685 14.2233C10.4463 14.301 10.5402 14.3608 10.6436 14.3982C10.7434 14.4423 10.8512 14.465 10.9603 14.465C11.0693 14.465 11.1772 14.4423 11.277 14.3982C11.3804 14.3608 11.4743 14.301 11.5521 14.2233C11.6298 14.1455 11.6895 14.0516 11.727 13.9482C11.7697 13.848 11.7923 13.7404 11.7936 13.6315C11.7977 13.576 11.7977 13.5203 11.7936 13.4648C11.7793 13.4117 11.7568 13.3611 11.727 13.3148ZM10.9603 1.96484C9.31211 1.96484 7.70095 2.45359 6.33054 3.36926C4.96013 4.28494 3.89202 5.58643 3.26129 7.10915C2.63056 8.63187 2.46554 10.3074 2.78708 11.9239C3.10862 13.5404 3.9023 15.0253 5.06773 16.1907C6.23317 17.3562 7.71803 18.1498 9.33454 18.4714C10.951 18.7929 12.6266 18.6279 14.1493 17.9972C15.672 17.3664 16.9735 16.2983 17.8892 14.9279C18.8049 13.5575 19.2936 11.9464 19.2936 10.2982C19.2936 9.20383 19.0781 8.12019 18.6593 7.10915C18.2405 6.0981 17.6267 5.17944 16.8528 4.40562C16.079 3.6318 15.1604 3.01797 14.1493 2.59918C13.1383 2.18039 12.0546 1.96484 10.9603 1.96484ZM10.9603 16.9648C9.64175 16.9648 8.35282 16.5739 7.25649 15.8413C6.16016 15.1088 5.30568 14.0676 4.80109 12.8494C4.29651 11.6312 4.16449 10.2908 4.42172 8.99758C4.67896 7.70437 5.31389 6.51648 6.24624 5.58413C7.1786 4.65178 8.36648 4.01684 9.65969 3.75961C10.9529 3.50237 12.2933 3.6344 13.5115 4.13898C14.7297 4.64356 15.7709 5.49805 16.5034 6.59438C17.236 7.6907 17.627 8.97964 17.627 10.2982C17.627 12.0663 16.9246 13.762 15.6743 15.0122C14.4241 16.2625 12.7284 16.9648 10.9603 16.9648Z" fill="black"/>
</svg>
