<svg width="21" height="21" viewBox="0 0 21 21" fill="none" xmlns="http://www.w3.org/2000/svg">
<path d="M14.6361 17.5991H7.9694C7.30636 17.5991 6.67048 17.3357 6.20163 16.8669C5.73279 16.398 5.4694 15.7622 5.4694 15.0991V6.76579C5.4694 6.54477 5.3816 6.33281 5.22532 6.17653C5.06904 6.02025 4.85708 5.93245 4.63607 5.93245C4.41505 5.93245 4.20309 6.02025 4.04681 6.17653C3.89053 6.33281 3.80273 6.54477 3.80273 6.76579V15.0991C3.80273 16.2042 4.24172 17.264 5.02312 18.0454C5.80452 18.8268 6.86433 19.2658 7.9694 19.2658H14.6361C14.8571 19.2658 15.069 19.178 15.2253 19.0217C15.3816 18.8654 15.4694 18.6535 15.4694 18.4325C15.4694 18.2114 15.3816 17.9995 15.2253 17.8432C15.069 17.6869 14.8571 17.5991 14.6361 17.5991ZM18.8027 8.38245C18.7941 8.3059 18.7773 8.23048 18.7527 8.15745V8.08245C18.7127 7.99677 18.6592 7.91801 18.5944 7.84912L13.5944 2.84912C13.5255 2.7843 13.4468 2.73086 13.3611 2.69079H13.2861L13.0194 2.59912H9.63607C8.97303 2.59912 8.33714 2.86251 7.8683 3.33135C7.39946 3.8002 7.13607 4.43608 7.13607 5.09912V13.4325C7.13607 14.0955 7.39946 14.7314 7.8683 15.2002C8.33714 15.6691 8.97303 15.9325 9.63607 15.9325H16.3027C16.9658 15.9325 17.6017 15.6691 18.0705 15.2002C18.5393 14.7314 18.8027 14.0955 18.8027 13.4325V8.43245C18.8027 8.43245 18.8027 8.43245 18.8027 8.38245ZM13.8027 5.44079L15.9611 7.59912H14.6361C14.4151 7.59912 14.2031 7.51132 14.0468 7.35504C13.8905 7.19876 13.8027 6.9868 13.8027 6.76579V5.44079ZM17.1361 13.4325C17.1361 13.6535 17.0483 13.8654 16.892 14.0217C16.7357 14.178 16.5237 14.2658 16.3027 14.2658H9.63607C9.41505 14.2658 9.20309 14.178 9.04681 14.0217C8.89053 13.8654 8.80273 13.6535 8.80273 13.4325V5.09912C8.80273 4.87811 8.89053 4.66615 9.04681 4.50987C9.20309 4.35359 9.41505 4.26579 9.63607 4.26579H12.1361V6.76579C12.1361 7.42883 12.3995 8.06471 12.8683 8.53356C13.3371 9.0024 13.973 9.26579 14.6361 9.26579H17.1361V13.4325Z" fill="#5A6A85"/>
</svg>
