<?xml version="1.0" encoding="UTF-8" standalone="no"?>
<svg
   width="12.00005"
   height="12.49996"
   viewBox="0 0 12.00005 12.49996"
   fill="none"
   version="1.1"
   id="svg1"
   xmlns="http://www.w3.org/2000/svg"
   xmlns:svg="http://www.w3.org/2000/svg">
  <defs
     id="defs1" />
  <path
     d="M 3.625,1.125 H 3.5 C 3.56875,1.125 3.625,1.06875 3.625,1 V 1.125 H 8.37505 V 1 c 0,0.06875 0.0562,0.125 0.125,0.125 h -0.125 V 2.25 h 1.125 V 1 c 0,-0.55157 -0.4485,-1 -1,-1 H 3.5 c -0.55156,0 -1,0.44843 -1,1 V 2.25 H 3.625 Z M 11.50005,2.25 H 0.5 C 0.22344,2.25 0,2.47343 0,2.75 v 0.5 c 0,0.06875 0.05625,0.125 0.125,0.125 h 0.94375 l 0.38594,8.17186 c 0.025,0.5328 0.46562,0.9531 0.99844,0.9531 h 7.09372 c 0.5344,0 0.9735,-0.4187 0.9985,-0.9531 L 10.93125,3.375 h 0.9438 c 0.0687,0 0.125,-0.05625 0.125,-0.125 v -0.5 c 0,-0.27657 -0.2235,-0.5 -0.5,-0.5 z m -2.0735,9.12496 H 2.57344 L 2.19531,3.375 h 7.60934 z"
     fill="#000000"
     fill-opacity="0.45"
     id="path1" />
</svg>
