<svg width="12" height="8" viewBox="0 0 12 8" fill="none" xmlns="http://www.w3.org/2000/svg">
<path d="M6.71005 6.83019L10.9501 2.59019C11.0438 2.49722 11.1182 2.38662 11.1689 2.26476C11.2197 2.1429 11.2458 2.0122 11.2458 1.88019C11.2458 1.74818 11.2197 1.61747 11.1689 1.49561C11.1182 1.37375 11.0438 1.26315 10.9501 1.17019C10.7627 0.983936 10.5092 0.879394 10.2451 0.879394C9.98087 0.879394 9.72741 0.983936 9.54005 1.17019L6.00005 4.71019L2.46005 1.17019C2.27269 0.983936 2.01924 0.879394 1.75505 0.879394C1.49086 0.879394 1.23741 0.983936 1.05005 1.17019C0.95737 1.26363 0.884045 1.37444 0.83428 1.49628C0.784515 1.61812 0.759291 1.74858 0.760052 1.88019C0.759291 2.01179 0.784515 2.14226 0.83428 2.26409C0.884045 2.38593 0.95737 2.49675 1.05005 2.59019L5.29005 6.83019C5.38301 6.92392 5.49362 6.99831 5.61547 7.04908C5.73733 7.09985 5.86804 7.12598 6.00005 7.12598C6.13206 7.12598 6.26277 7.09985 6.38463 7.04908C6.50649 6.99831 6.61709 6.92392 6.71005 6.83019Z" fill="#2E3A59"/>
</svg>
