<svg width="13" height="13" viewBox="0 0 13 13" fill="none" xmlns="http://www.w3.org/2000/svg">
<path d="M5.27775 9.6105L4.39275 10.4705C4.16069 10.7026 3.84594 10.8329 3.51775 10.8329C3.18956 10.8329 2.87481 10.7026 2.64275 10.4705C2.41069 10.2384 2.28031 9.92369 2.28031 9.5955C2.28031 9.26731 2.41069 8.95256 2.64275 8.7205L4.91275 6.4455C5.13556 6.22197 5.43576 6.09264 5.75126 6.08426C6.06675 6.07588 6.3734 6.1891 6.60775 6.4005L6.66775 6.4505C6.76257 6.54332 6.89037 6.59468 7.02305 6.59327C7.15574 6.59187 7.28242 6.53781 7.37525 6.443C7.46808 6.34818 7.51944 6.22038 7.51803 6.08769C7.51662 5.95501 7.46257 5.82832 7.36775 5.7355C7.33953 5.69901 7.30949 5.66396 7.27775 5.6305C6.85093 5.25915 6.29892 5.06392 5.73353 5.08434C5.16815 5.10477 4.63167 5.33932 4.23275 5.7405L1.93275 8.0155C1.54193 8.44089 1.33056 9.00083 1.34279 9.57837C1.35501 10.1559 1.58989 10.7064 1.99837 11.1149C2.40684 11.5234 2.95733 11.7582 3.53487 11.7705C4.11242 11.7827 4.67235 11.5713 5.09775 11.1805L5.96275 10.3355C6.04816 10.2423 6.09511 10.1203 6.09415 9.99386C6.0932 9.86747 6.04441 9.74613 5.95761 9.65425C5.8708 9.56238 5.75242 9.50679 5.62628 9.49867C5.50015 9.49055 5.37562 9.53051 5.27775 9.6105ZM10.6228 2.4905C10.2021 2.0725 9.63324 1.83789 9.04025 1.83789C8.44726 1.83789 7.87836 2.0725 7.45775 2.4905L6.59275 3.3355C6.50734 3.42867 6.46039 3.55074 6.46135 3.67713C6.4623 3.80352 6.51109 3.92486 6.5979 4.01674C6.6847 4.10861 6.80308 4.1642 6.92922 4.17232C7.05535 4.18044 7.17988 4.14049 7.27775 4.0605L8.14275 3.2005C8.37481 2.96843 8.68956 2.83806 9.01775 2.83806C9.34594 2.83806 9.66069 2.96843 9.89275 3.2005C10.1248 3.43256 10.2552 3.74731 10.2552 4.0755C10.2552 4.40369 10.1248 4.71843 9.89275 4.9505L7.62275 7.2255C7.39994 7.44903 7.09974 7.57836 6.78424 7.58673C6.46875 7.59511 6.1621 7.48189 5.92775 7.2705L5.86775 7.2205C5.77294 7.12767 5.64513 7.07631 5.51245 7.07772C5.37977 7.07912 5.25308 7.13318 5.16025 7.228C5.06742 7.32281 5.01607 7.45062 5.01747 7.5833C5.01888 7.71598 5.07294 7.84267 5.16775 7.9355C5.20407 7.97264 5.24246 8.0077 5.28275 8.0405C5.71009 8.41072 6.26186 8.60522 6.8269 8.58481C7.39194 8.5644 7.92824 8.33059 8.32775 7.9305L10.6027 5.6555C11.0234 5.23753 11.2616 4.67011 11.2654 4.07712C11.2691 3.48413 11.0381 2.91374 10.6228 2.4905Z" fill="#FF9B0A"/>
</svg>
