<svg width="120" height="22" viewBox="0 0 120 22" fill="none" xmlns="http://www.w3.org/2000/svg">
<g clip-path="url(#clip0_48_2104)">
<path d="M34.5894 1.22852L28.0565 21.7072H20.6778L17.3822 10.7658L13.9116 21.7072H6.53291L0 1.22852H7.08704L10.6451 12.8721L14.4074 1.22852H20.7361L24.2942 13.0184L28.0565 1.22852H34.5894Z" fill="#17213B"/>
<path d="M51.7197 13.6914C51.7197 13.7889 51.6906 14.3058 51.6322 15.2419H40.5496C40.7829 15.8465 41.1718 16.3146 41.7162 16.6462C42.2606 16.9582 42.9411 17.1143 43.7577 17.1143C44.4577 17.1143 45.041 17.0265 45.5076 16.851C45.9937 16.6754 46.5187 16.3731 47.0825 15.944L50.524 19.4254C48.9685 21.1417 46.6451 21.9999 43.5536 21.9999C41.6287 21.9999 39.9372 21.6488 38.4789 20.9467C37.0207 20.2251 35.893 19.2304 35.0958 17.9627C34.2986 16.6949 33.9001 15.2712 33.9001 13.6914C33.9001 12.0921 34.2889 10.6683 35.0666 9.42009C35.8638 8.15236 36.9429 7.16743 38.3039 6.46531C39.6844 5.76318 41.2301 5.41211 42.9411 5.41211C44.5549 5.41211 46.0229 5.73392 47.345 6.37754C48.6866 7.02116 49.7462 7.96708 50.524 9.21531C51.3211 10.4636 51.7197 11.9556 51.7197 13.6914ZM42.9995 9.91743C42.3189 9.91743 41.7551 10.1027 41.3079 10.4733C40.8607 10.8439 40.5691 11.3705 40.433 12.0531H45.566C45.4299 11.39 45.1382 10.8731 44.691 10.5026C44.2438 10.1125 43.68 9.91743 42.9995 9.91743Z" fill="#17213B"/>
<path d="M64.4449 5.41223C65.8448 5.41223 67.1281 5.75355 68.2946 6.43617C69.4807 7.09929 70.414 8.06472 71.0945 9.33245C71.7944 10.5807 72.1444 12.0337 72.1444 13.6915C72.1444 15.3493 71.7944 16.8121 71.0945 18.0798C70.414 19.3475 69.4807 20.3227 68.2946 21.0053C67.1281 21.6684 65.8448 22 64.4449 22C62.4811 22 61.0229 21.4637 60.0702 20.391V21.7074H53.7998V0H60.391V6.78723C61.3243 5.87057 62.6756 5.41223 64.4449 5.41223ZM62.87 16.8511C63.6283 16.8511 64.2505 16.578 64.7365 16.0319C65.2226 15.4663 65.4657 14.6862 65.4657 13.6915C65.4657 12.6968 65.2226 11.9264 64.7365 11.3803C64.2505 10.8342 63.6283 10.5612 62.87 10.5612C62.1117 10.5612 61.4895 10.8342 61.0035 11.3803C60.5174 11.9264 60.2743 12.6968 60.2743 13.6915C60.2743 14.6862 60.5174 15.4663 61.0035 16.0319C61.4895 16.578 62.1117 16.8511 62.87 16.8511Z" fill="#17213B"/>
<path d="M84.9826 14.4519V21.7072H80.2579V14.3934L72.3542 1.22852H77.3706L82.8244 10.3269L88.2782 1.22852H92.9154L84.9826 14.4519Z" fill="#17213B"/>
<path d="M113.584 5.73389C115.548 5.73389 117.103 6.319 118.25 7.48921C119.417 8.63992 120 10.3757 120 12.6966V21.7072H115.45V13.3987C115.45 12.1505 115.188 11.2241 114.663 10.6195C114.157 9.99542 113.428 9.68336 112.475 9.68336C111.406 9.68336 110.56 10.0344 109.938 10.7365C109.316 11.4191 109.005 12.4431 109.005 13.8083V21.7072H104.455V13.3987C104.455 10.9218 103.464 9.68336 101.48 9.68336C100.43 9.68336 99.5945 10.0344 98.9723 10.7365C98.3501 11.4191 98.039 12.4431 98.039 13.8083V21.7072H93.4893V5.96793H97.8349V7.78177C98.4182 7.11864 99.1278 6.61155 99.9639 6.26049C100.819 5.90943 101.753 5.73389 102.764 5.73389C103.872 5.73389 104.873 5.95818 105.768 6.40677C106.662 6.83584 107.381 7.46971 107.926 8.30836C108.567 7.48921 109.374 6.85535 110.346 6.40677C111.338 5.95818 112.417 5.73389 113.584 5.73389Z" fill="#17213B"/>
</g>
<defs>
<clipPath id="clip0_48_2104">
<rect width="120" height="22" fill="white"/>
</clipPath>
</defs>
</svg>
