<svg width="31" height="30" viewBox="0 0 31 30" fill="none" xmlns="http://www.w3.org/2000/svg">
<rect x="0.708984" width="30" height="30" rx="15" fill="#0081E6"/>
<g clip-path="url(#clip0_87_3466)">
<path fill-rule="evenodd" clip-rule="evenodd" d="M15.708 8.75C12.2561 8.75 9.45801 11.5481 9.45801 15C9.45801 16.1813 9.78613 17.2875 10.3568 18.23L9.79926 20.125C9.76725 20.2338 9.76514 20.3492 9.79316 20.4591C9.82118 20.569 9.87829 20.6693 9.95848 20.7495C10.0387 20.8297 10.139 20.8868 10.2489 20.9148C10.3588 20.9429 10.4742 20.9408 10.583 20.9088L12.478 20.3513C13.4522 20.9407 14.5694 21.2515 15.708 21.25C19.1599 21.25 21.958 18.4519 21.958 15C21.958 11.5481 19.1599 8.75 15.708 8.75ZM14.2943 16.4144C15.5586 17.6781 16.7655 17.845 17.1918 17.8606C17.8399 17.8844 18.4711 17.3894 18.7168 16.815C18.7478 16.7435 18.759 16.6651 18.7493 16.5878C18.7397 16.5105 18.7094 16.4372 18.6618 16.3756C18.3193 15.9381 17.8561 15.6238 17.4036 15.3113C17.3092 15.2459 17.1931 15.2197 17.0797 15.2381C16.9663 15.2565 16.8645 15.3181 16.7955 15.41L16.4205 15.9819C16.4008 16.0126 16.3701 16.0347 16.3346 16.0435C16.2992 16.0523 16.2617 16.0473 16.2299 16.0294C15.9755 15.8838 15.6049 15.6363 15.3386 15.37C15.0724 15.1038 14.8399 14.75 14.7093 14.5119C14.6931 14.4816 14.6884 14.4465 14.6961 14.4131C14.7038 14.3796 14.7233 14.3501 14.7511 14.33L15.3286 13.9013C15.411 13.8296 15.4642 13.7301 15.4781 13.6218C15.4919 13.5135 15.4654 13.4038 15.4036 13.3138C15.1236 12.9038 14.7974 12.3825 14.3243 12.0369C14.2632 11.9926 14.1917 11.965 14.1167 11.9568C14.0418 11.9486 13.966 11.96 13.8968 11.99C13.3218 12.2363 12.8243 12.8675 12.848 13.5169C12.8636 13.9431 13.0305 15.15 14.2943 16.4144Z" fill="white"/>
</g>
<defs>
<clipPath id="clip0_87_3466">
<rect width="15" height="15" fill="white" transform="translate(8.20898 7.5)"/>
</clipPath>
</defs>
</svg>
