<svg width="61" height="61" viewBox="0 0 61 61" fill="none" xmlns="http://www.w3.org/2000/svg">
<circle cx="30.7192" cy="30.0557" r="30" fill="#0081E6"/>
<path fill-rule="evenodd" clip-rule="evenodd" d="M40.0002 20.1925C40.288 20.0713 40.6031 20.0296 40.9126 20.0715C41.222 20.1134 41.5146 20.2375 41.7599 20.4309C42.0051 20.6243 42.194 20.8799 42.307 21.171C42.4199 21.4622 42.4527 21.7783 42.402 22.0865L39.7602 38.111C39.504 39.6567 37.808 40.5431 36.3904 39.7732C35.2046 39.129 33.4434 38.1366 31.8592 37.1011C31.0671 36.5827 28.6408 34.9229 28.939 33.7417C29.1953 32.7318 33.2722 28.9368 35.6018 26.6806C36.5162 25.7941 36.0992 25.2828 35.0194 26.0981C32.3368 28.1226 28.0328 31.2012 26.6094 32.0679C25.3537 32.832 24.699 32.9625 23.9163 32.832C22.4882 32.5944 21.1638 32.2263 20.0828 31.7778C18.6222 31.1721 18.6932 29.164 20.0817 28.5792L40.0002 20.1925Z" fill="white"/>
</svg>
