<svg width="31" height="31" viewBox="0 0 31 31" fill="none" xmlns="http://www.w3.org/2000/svg">
<rect x="0.0961914" y="0.151367" width="30" height="30" rx="15" fill="#FF9B0A"/>
<path d="M18.8162 15.6511C18.7062 15.6511 18.5912 15.6161 18.4812 15.5911C18.2585 15.542 18.0396 15.4768 17.8262 15.3961C17.5943 15.3117 17.3393 15.3161 17.1104 15.4084C16.8815 15.5007 16.6948 15.6744 16.5862 15.8961L16.4762 16.1211C15.9892 15.8501 15.5417 15.5137 15.1462 15.1211C14.7536 14.7256 14.4172 14.2781 14.1462 13.7911L14.3562 13.6511C14.5779 13.5425 14.7516 13.3558 14.8439 13.1269C14.9362 12.898 14.9406 12.643 14.8562 12.4111C14.7769 12.1973 14.7117 11.9785 14.6612 11.7561C14.6362 11.6461 14.6162 11.5311 14.6012 11.4161C14.5405 11.0639 14.3561 10.7449 14.0811 10.5167C13.8061 10.2884 13.4586 10.1659 13.1012 10.1711H11.6012C11.3858 10.169 11.1724 10.2135 10.9756 10.3013C10.7788 10.3892 10.6033 10.5184 10.461 10.6802C10.3186 10.842 10.2128 11.0326 10.1507 11.2389C10.0887 11.4453 10.0718 11.6626 10.1012 11.8761C10.3676 13.9707 11.3243 15.917 12.8201 17.4074C14.3159 18.8978 16.2656 19.8473 18.3612 20.1061H18.5512C18.9199 20.1066 19.2759 19.9713 19.5512 19.7261C19.7094 19.5846 19.8358 19.4111 19.922 19.2172C20.0082 19.0233 20.0522 18.8133 20.0512 18.6011V17.1011C20.0451 16.7537 19.9186 16.4193 19.6934 16.1549C19.4682 15.8904 19.1581 15.7124 18.8162 15.6511ZM19.0662 18.6511C19.0662 18.722 19.0509 18.7922 19.0216 18.8569C18.9923 18.9215 18.9496 18.9792 18.8962 19.0261C18.8405 19.0746 18.7752 19.1108 18.7046 19.1323C18.6339 19.1538 18.5595 19.1602 18.4862 19.1511C16.6137 18.911 14.8744 18.0543 13.5426 16.7162C12.2108 15.3781 11.3624 13.6347 11.1312 11.7611C11.1233 11.6878 11.1303 11.6137 11.1517 11.5433C11.1732 11.4728 11.2088 11.4074 11.2562 11.3511C11.3031 11.2977 11.3608 11.255 11.4254 11.2257C11.4901 11.1964 11.5602 11.1811 11.6312 11.1811H13.1312C13.2475 11.1785 13.3611 11.2165 13.4523 11.2886C13.5436 11.3607 13.6068 11.4623 13.6312 11.5761C13.6512 11.7127 13.6762 11.8477 13.7062 11.9811C13.764 12.2446 13.8409 12.5036 13.9362 12.7561L13.2362 13.0811C13.1764 13.1085 13.1226 13.1475 13.0778 13.1959C13.0331 13.2442 12.9983 13.3009 12.9756 13.3627C12.9528 13.4244 12.9425 13.4901 12.9452 13.5559C12.9479 13.6217 12.9635 13.6863 12.9912 13.7461C13.7108 15.2874 14.9499 16.5265 16.4912 17.2461C16.613 17.2961 16.7495 17.2961 16.8712 17.2461C16.9336 17.2238 16.9909 17.1893 17.0398 17.1446C17.0888 17.1 17.1283 17.0461 17.1562 16.9861L17.4662 16.2861C17.7247 16.3785 17.9885 16.4553 18.2562 16.5161C18.3896 16.5461 18.5246 16.5711 18.6612 16.5911C18.775 16.6155 18.8766 16.6787 18.9487 16.77C19.0208 16.8612 19.0588 16.9748 19.0562 17.0911L19.0662 18.6511Z" fill="white"/>
</svg>
