<svg width="31" height="31" viewBox="0 0 31 31" fill="none" xmlns="http://www.w3.org/2000/svg">
<rect x="0.0961914" y="0.151367" width="30" height="30" rx="15" fill="#F0F4FA"/>
<path d="M20.8211 12.0706C20.9049 11.7921 20.8211 11.5879 20.4246 11.5879H19.1113C18.7772 11.5879 18.6245 11.7646 18.5406 11.9586C18.5406 11.9586 17.8729 13.5868 16.9267 14.6426C16.6213 14.9498 16.4818 15.0468 16.3153 15.0468C16.2321 15.0468 16.1111 14.9498 16.1111 14.6714V12.0706C16.1111 11.7364 16.0147 11.5879 15.7362 11.5879H13.6726C13.4642 11.5879 13.3384 11.7424 13.3384 11.8897C13.3384 12.2059 13.8115 12.279 13.86 13.17V15.1031C13.86 15.5265 13.784 15.6038 13.6163 15.6038C13.1714 15.6038 12.0886 13.9695 11.4461 12.0987C11.3209 11.7352 11.1946 11.5885 10.8592 11.5885H9.54653C9.17105 11.5885 9.09619 11.7652 9.09619 11.9592C9.09619 12.3077 9.54114 14.0324 11.1688 16.3134C12.2539 17.871 13.7816 18.7154 15.1733 18.7154C16.0075 18.7154 16.1105 18.528 16.1105 18.2046V17.0272C16.1105 16.6524 16.1902 16.5769 16.4542 16.5769C16.6483 16.5769 16.9824 16.6751 17.7615 17.4255C18.6514 18.3154 18.7987 18.7148 19.2988 18.7148H20.6115C20.9863 18.7148 21.1738 18.5274 21.066 18.1573C20.948 17.789 20.5228 17.253 19.9587 16.6188C19.6521 16.2571 19.194 15.8679 19.0544 15.6732C18.8598 15.4223 18.9161 15.3115 19.0544 15.0888C19.055 15.0894 20.6546 12.8365 20.8211 12.0706Z" fill="#7992B2"/>
</svg>
