<svg width="61" height="61" viewBox="0 0 61 61" fill="none" xmlns="http://www.w3.org/2000/svg">
<circle cx="30.7192" cy="30.0557" r="30" fill="#DC3528"/>
<path d="M39.9425 25.4172C39.8329 25.0091 39.618 24.6369 39.3194 24.3379C39.0208 24.0389 38.6489 23.8236 38.2409 23.7135C36.7392 23.3096 30.7192 23.3096 30.7192 23.3096C30.7192 23.3096 24.6993 23.3096 23.1976 23.7113C22.7894 23.8211 22.4173 24.0363 22.1186 24.3353C21.82 24.6344 21.6052 25.0067 21.496 25.415C21.0942 26.9189 21.0942 30.0557 21.0942 30.0557C21.0942 30.0557 21.0942 33.1924 21.496 34.6941C21.7173 35.5234 22.3704 36.1766 23.1976 36.3979C24.6993 36.8018 30.7192 36.8018 30.7192 36.8018C30.7192 36.8018 36.7392 36.8018 38.2409 36.3979C39.0702 36.1766 39.7212 35.5234 39.9425 34.6941C40.3442 33.1924 40.3442 30.0557 40.3442 30.0557C40.3442 30.0557 40.3442 26.9189 39.9425 25.4172ZM28.8071 32.9346V27.1768L33.7915 30.0342L28.8071 32.9346Z" fill="white"/>
</svg>
