<svg width="31" height="31" viewBox="0 0 31 31" fill="none" xmlns="http://www.w3.org/2000/svg">
<rect x="0.0961914" y="0.151367" width="30" height="30" rx="15" fill="#01BE57"/>
<g clip-path="url(#clip0_84_3868)">
<path fill-rule="evenodd" clip-rule="evenodd" d="M15.0957 8.90137C11.6438 8.90137 8.8457 11.6995 8.8457 15.1514C8.8457 16.3326 9.17383 17.4389 9.74445 18.3814L9.18695 20.2764C9.15494 20.3852 9.15284 20.5006 9.18086 20.6105C9.20887 20.7204 9.26598 20.8207 9.34618 20.9009C9.42637 20.9811 9.52669 21.0382 9.63659 21.0662C9.74649 21.0942 9.8619 21.0921 9.9707 21.0601L11.8657 20.5026C12.8399 21.092 13.9571 21.4029 15.0957 21.4014C18.5476 21.4014 21.3457 18.6032 21.3457 15.1514C21.3457 11.6995 18.5476 8.90137 15.0957 8.90137ZM13.682 16.5657C14.9463 17.8295 16.1532 17.9964 16.5795 18.012C17.2276 18.0357 17.8588 17.5407 18.1045 16.9664C18.1355 16.8949 18.1467 16.8164 18.137 16.7392C18.1274 16.6619 18.0971 16.5886 18.0495 16.527C17.707 16.0895 17.2438 15.7751 16.7913 15.4626C16.6969 15.3973 16.5808 15.3711 16.4674 15.3895C16.354 15.4079 16.2522 15.4695 16.1832 15.5614L15.8082 16.1332C15.7885 16.164 15.7578 16.186 15.7223 16.1949C15.6869 16.2037 15.6494 16.1986 15.6176 16.1807C15.3632 16.0351 14.9926 15.7876 14.7263 15.5214C14.4601 15.2551 14.2276 14.9014 14.097 14.6632C14.0808 14.633 14.0761 14.5979 14.0838 14.5645C14.0915 14.531 14.111 14.5015 14.1388 14.4814L14.7163 14.0526C14.7987 13.981 14.8519 13.8815 14.8658 13.7732C14.8796 13.6648 14.8531 13.5552 14.7913 13.4651C14.5113 13.0551 14.1851 12.5339 13.712 12.1882C13.6509 12.144 13.5794 12.1164 13.5044 12.1082C13.4295 12.1 13.3536 12.1114 13.2845 12.1414C12.7095 12.3876 12.212 13.0189 12.2357 13.6682C12.2513 14.0945 12.4182 15.3014 13.682 16.5657Z" fill="white"/>
</g>
<defs>
<clipPath id="clip0_84_3868">
<rect width="15" height="15" fill="white" transform="translate(7.59619 7.65137)"/>
</clipPath>
</defs>
</svg>
