<svg width="25" height="25" viewBox="0 0 25 25" fill="none" xmlns="http://www.w3.org/2000/svg">
<path d="M16.7085 10.3183H14.7085V8.31834C14.7085 8.05313 14.6031 7.79877 14.4156 7.61124C14.228 7.4237 13.9737 7.31834 13.7085 7.31834H8.70848C8.44326 7.31834 8.18891 7.4237 8.00137 7.61124C7.81384 7.79877 7.70848 8.05313 7.70848 8.31834V13.3183C7.70848 13.5836 7.81384 13.8379 8.00137 14.0254C8.18891 14.213 8.44326 14.3183 8.70848 14.3183H10.7085V16.3183C10.7085 16.5836 10.8138 16.8379 11.0014 17.0254C11.1889 17.213 11.4433 17.3183 11.7085 17.3183H16.7085C16.9737 17.3183 17.2281 17.213 17.4156 17.0254C17.6031 16.8379 17.7085 16.5836 17.7085 16.3183V11.3183C17.7085 11.0531 17.6031 10.7988 17.4156 10.6112C17.2281 10.4237 16.9737 10.3183 16.7085 10.3183ZM10.7085 11.3183V12.3183H9.70848V9.31834H12.7085V10.3183H11.7085C11.4433 10.3183 11.1889 10.4237 11.0014 10.6112C10.8138 10.7988 10.7085 11.0531 10.7085 11.3183ZM15.7085 15.3183H12.7085V12.3183H15.7085V15.3183ZM21.7085 18.5983V6.03834C21.9789 5.88791 22.2108 5.67676 22.3858 5.42152C22.5608 5.16629 22.6742 4.87392 22.717 4.56742C22.7599 4.26093 22.731 3.94867 22.6327 3.65522C22.5344 3.36178 22.3693 3.09515 22.1505 2.87631C21.9317 2.65748 21.665 2.49242 21.3716 2.39411C21.0782 2.29581 20.7659 2.26694 20.4594 2.30979C20.1529 2.35263 19.8605 2.46602 19.6053 2.64103C19.3501 2.81604 19.1389 3.04789 18.9885 3.31834H6.42848C6.27804 3.04789 6.0669 2.81604 5.81166 2.64103C5.55642 2.46602 5.26405 2.35263 4.95756 2.30979C4.65106 2.26694 4.33881 2.29581 4.04536 2.39411C3.75191 2.49242 3.48528 2.65748 3.26645 2.87631C3.04762 3.09515 2.88256 3.36178 2.78425 3.65522C2.68594 3.94867 2.65708 4.26093 2.69992 4.56742C2.74277 4.87392 2.85616 5.16629 3.03117 5.42152C3.20617 5.67676 3.43803 5.88791 3.70848 6.03834V18.5983C3.43803 18.7488 3.20617 18.9599 3.03117 19.2152C2.85616 19.4704 2.74277 19.7628 2.69992 20.0693C2.65708 20.3758 2.68594 20.688 2.78425 20.9815C2.88256 21.2749 3.04762 21.5415 3.26645 21.7604C3.48528 21.9792 3.75191 22.1443 4.04536 22.2426C4.33881 22.3409 4.65106 22.3697 4.95756 22.3269C5.26405 22.2841 5.55642 22.1707 5.81166 21.9957C6.0669 21.8206 6.27804 21.5888 6.42848 21.3183H18.9885C19.1389 21.5888 19.3501 21.8206 19.6053 21.9957C19.8605 22.1707 20.1529 22.2841 20.4594 22.3269C20.7659 22.3697 21.0782 22.3409 21.3716 22.2426C21.665 22.1443 21.9317 21.9792 22.1505 21.7604C22.3693 21.5415 22.5344 21.2749 22.6327 20.9815C22.731 20.688 22.7599 20.3758 22.717 20.0693C22.6742 19.7628 22.5608 19.4704 22.3858 19.2152C22.2108 18.9599 21.9789 18.7488 21.7085 18.5983ZM19.7085 18.5983C19.4077 18.7688 19.1589 19.0176 18.9885 19.3183H6.42848C6.25805 19.0176 6.00921 18.7688 5.70848 18.5983V6.03834C6.00921 5.86791 6.25805 5.61907 6.42848 5.31834H18.9885C19.1589 5.61907 19.4077 5.86791 19.7085 6.03834V18.5983Z" fill="#FF9B0A"/>
</svg>
