<svg width="25" height="25" viewBox="0 0 25 25" fill="none" xmlns="http://www.w3.org/2000/svg">
<path d="M18.7085 1.31836H10.7085C9.91285 1.31836 9.14979 1.63443 8.58718 2.19704C8.02457 2.75965 7.7085 3.52271 7.7085 4.31836H6.7085C5.91285 4.31836 5.14979 4.63443 4.58718 5.19704C4.02457 5.75965 3.7085 6.52271 3.7085 7.31836V10.3184C3.7085 11.114 4.02457 11.8771 4.58718 12.4397C5.14979 13.0023 5.91285 13.3184 6.7085 13.3184H12.7085C12.9737 13.3184 13.2281 13.4237 13.4156 13.6113C13.6031 13.7988 13.7085 14.0531 13.7085 14.3184V15.3184C13.1781 15.3184 12.6694 15.5291 12.2943 15.9041C11.9192 16.2792 11.7085 16.7879 11.7085 17.3184V21.3184C11.7085 21.8488 11.9192 22.3575 12.2943 22.7326C12.6694 23.1076 13.1781 23.3184 13.7085 23.3184H15.7085C16.2389 23.3184 16.7476 23.1076 17.1227 22.7326C17.4978 22.3575 17.7085 21.8488 17.7085 21.3184V17.3184C17.7085 16.7879 17.4978 16.2792 17.1227 15.9041C16.7476 15.5291 16.2389 15.3184 15.7085 15.3184V14.3184C15.7085 13.5227 15.3924 12.7596 14.8298 12.197C14.2672 11.6344 13.5041 11.3184 12.7085 11.3184H6.7085C6.44328 11.3184 6.18893 11.213 6.00139 11.0255C5.81385 10.8379 5.7085 10.5836 5.7085 10.3184V7.31836C5.7085 7.05314 5.81385 6.79879 6.00139 6.61125C6.18893 6.42372 6.44328 6.31836 6.7085 6.31836H7.7085C7.7085 7.11401 8.02457 7.87707 8.58718 8.43968C9.14979 9.00229 9.91285 9.31836 10.7085 9.31836H18.7085C19.5041 9.31836 20.2672 9.00229 20.8298 8.43968C21.3924 7.87707 21.7085 7.11401 21.7085 6.31836V4.31836C21.7085 3.52271 21.3924 2.75965 20.8298 2.19704C20.2672 1.63443 19.5041 1.31836 18.7085 1.31836ZM15.7085 17.3184V21.3184H13.7085V17.3184H15.7085ZM19.7085 6.31836C19.7085 6.58358 19.6031 6.83793 19.4156 7.02547C19.2281 7.213 18.9737 7.31836 18.7085 7.31836H10.7085C10.4433 7.31836 10.1889 7.213 10.0014 7.02547C9.81385 6.83793 9.7085 6.58358 9.7085 6.31836V4.31836C9.7085 4.05314 9.81385 3.79879 10.0014 3.61125C10.1889 3.42372 10.4433 3.31836 10.7085 3.31836H18.7085C18.9737 3.31836 19.2281 3.42372 19.4156 3.61125C19.6031 3.79879 19.7085 4.05314 19.7085 4.31836V6.31836Z" fill="#FF9B0A"/>
</svg>
