<svg width="15" height="15" viewBox="0 0 15 15" fill="none" xmlns="http://www.w3.org/2000/svg">
<path d="M5.51416 4.61066H6.66885V9.89659C6.66885 9.96534 6.7251 10.0216 6.79385 10.0216H7.73135C7.8001 10.0216 7.85635 9.96534 7.85635 9.89659V4.61066H9.01416C9.11885 4.61066 9.17666 4.49034 9.1126 4.40909L7.3626 2.19347C7.3509 2.17853 7.33596 2.16645 7.31891 2.15814C7.30185 2.14983 7.28313 2.14551 7.26416 2.14551C7.24519 2.14551 7.22647 2.14983 7.20941 2.15814C7.19236 2.16645 7.17742 2.17853 7.16572 2.19347L5.41572 4.40753C5.35166 4.49034 5.40947 4.61066 5.51416 4.61066ZM12.9829 9.42784H12.0454C11.9767 9.42784 11.9204 9.48409 11.9204 9.55284V11.9591H2.60791V9.55284C2.60791 9.48409 2.55166 9.42784 2.48291 9.42784H1.54541C1.47666 9.42784 1.42041 9.48409 1.42041 9.55284V12.6466C1.42041 12.9232 1.64385 13.1466 1.92041 13.1466H12.6079C12.8845 13.1466 13.1079 12.9232 13.1079 12.6466V9.55284C13.1079 9.48409 13.0517 9.42784 12.9829 9.42784Z" fill="black" fill-opacity="0.25"/>
</svg>
