<svg width="41" height="41" viewBox="0 0 41 41" fill="none" xmlns="http://www.w3.org/2000/svg">
<path fill-rule="evenodd" clip-rule="evenodd" d="M20.6818 3.89355C11.4768 3.89355 4.01514 11.3552 4.01514 20.5602C4.01514 23.7102 4.89014 26.6602 6.4118 29.1736L4.92514 34.2269C4.83978 34.517 4.83416 34.8248 4.90888 35.1179C4.98359 35.4109 5.13588 35.6784 5.34974 35.8923C5.56359 36.1061 5.83111 36.2584 6.12416 36.3331C6.41722 36.4079 6.725 36.4022 7.01514 36.3169L12.0685 34.8302C14.6663 36.402 17.6455 37.231 20.6818 37.2269C29.8868 37.2269 37.3485 29.7652 37.3485 20.5602C37.3485 11.3552 29.8868 3.89355 20.6818 3.89355ZM16.9118 24.3319C20.2835 27.7019 23.5018 28.1469 24.6385 28.1886C26.3668 28.2519 28.0501 26.9319 28.7051 25.4002C28.7878 25.2097 28.8178 25.0004 28.792 24.7943C28.7662 24.5882 28.6856 24.3928 28.5585 24.2286C27.6451 23.0619 26.4101 22.2236 25.2035 21.3902C24.9515 21.216 24.6419 21.1461 24.3396 21.1952C24.0373 21.2443 23.7657 21.4086 23.5818 21.6536L22.5818 23.1786C22.5292 23.2605 22.4473 23.3193 22.3528 23.3429C22.2583 23.3664 22.1584 23.353 22.0735 23.3052C21.3951 22.9169 20.4068 22.2569 19.6968 21.5469C18.9868 20.8369 18.3668 19.8936 18.0185 19.2586C17.9753 19.1779 17.9628 19.0843 17.9833 18.9951C18.0039 18.9059 18.056 18.8272 18.1301 18.7736L19.6701 17.6302C19.8899 17.4391 20.0317 17.1739 20.0686 16.885C20.1055 16.5961 20.0349 16.3037 19.8701 16.0636C19.1235 14.9702 18.2535 13.5802 16.9918 12.6586C16.829 12.5406 16.6382 12.467 16.4384 12.4451C16.2385 12.4232 16.0363 12.4536 15.8518 12.5336C14.3185 13.1902 12.9918 14.8736 13.0551 16.6052C13.0968 17.7419 13.5418 20.9602 16.9118 24.3319Z" fill="#4CAF50"/>
</svg>
