<svg width="20" height="20" viewBox="0 0 20 20" fill="none" xmlns="http://www.w3.org/2000/svg">
<g clip-path="url(#clip0_3_968)">
<path fill-rule="evenodd" clip-rule="evenodd" d="M9.99935 1.6665C5.39685 1.6665 1.66602 5.39734 1.66602 9.99984C1.66602 11.5748 2.10352 13.0498 2.86435 14.3065L2.12102 16.8332C2.07834 16.9782 2.07553 17.1321 2.11289 17.2787C2.15024 17.4252 2.22639 17.5589 2.33332 17.6659C2.44024 17.7728 2.574 17.8489 2.72053 17.8863C2.86706 17.9237 3.02095 17.9209 3.16602 17.8782L5.69268 17.1348C6.99158 17.9207 8.4812 18.3352 9.99935 18.3332C14.6018 18.3332 18.3327 14.6023 18.3327 9.99984C18.3327 5.39734 14.6018 1.6665 9.99935 1.6665ZM8.11435 11.8857C9.80018 13.5707 11.4093 13.7932 11.9777 13.814C12.8418 13.8457 13.6835 13.1857 14.011 12.4198C14.0524 12.3246 14.0674 12.2199 14.0545 12.1169C14.0416 12.0138 14.0012 11.9161 13.9377 11.834C13.481 11.2507 12.8635 10.8315 12.2602 10.4148C12.1342 10.3277 11.9794 10.2928 11.8282 10.3173C11.6771 10.3419 11.5413 10.424 11.4493 10.5465L10.9493 11.309C10.9231 11.35 10.8821 11.3794 10.8348 11.3912C10.7876 11.4029 10.7376 11.3962 10.6952 11.3723C10.356 11.1782 9.86185 10.8482 9.50685 10.4932C9.15185 10.1382 8.84185 9.6665 8.66768 9.349C8.64609 9.30867 8.63984 9.26187 8.65011 9.21728C8.66038 9.17269 8.68646 9.13334 8.72352 9.1065L9.49352 8.53484C9.6034 8.43929 9.67432 8.30667 9.69276 8.16222C9.7112 8.01778 9.67588 7.87159 9.59351 7.7515C9.22018 7.20484 8.78518 6.50984 8.15435 6.049C8.07294 5.99001 7.97757 5.95322 7.87763 5.94226C7.77768 5.9313 7.67661 5.94655 7.58435 5.9865C6.81768 6.31484 6.15435 7.1565 6.18602 8.02234C6.20685 8.59067 6.42935 10.1998 8.11435 11.8857Z" fill="#7992B2"/>
</g>
<defs>
<clipPath id="clip0_3_968">
<rect width="20" height="20" fill="white"/>
</clipPath>
</defs>
</svg>
