<svg width="35" height="35" viewBox="0 0 35 35" fill="none" xmlns="http://www.w3.org/2000/svg">
<rect x="0.969238" y="0.633789" width="33" height="33" rx="16.5" fill="#E5F1FB"/>
<rect x="0.969238" y="0.633789" width="33" height="33" rx="16.5" stroke="#FF4D4F"/>
<g clip-path="url(#clip0_87_1409)">
<g clip-path="url(#clip1_87_1409)">
<path d="M15.0942 12.0122H14.9692C15.038 12.0122 15.0942 11.956 15.0942 11.8872V12.0122H19.8442V11.8872C19.8442 11.956 19.9005 12.0122 19.9692 12.0122H19.8442V13.1372H20.9692V11.8872C20.9692 11.3356 20.5208 10.8872 19.9692 10.8872H14.9692C14.4177 10.8872 13.9692 11.3356 13.9692 11.8872V13.1372H15.0942V12.0122ZM22.9692 13.1372H11.9692C11.6927 13.1372 11.4692 13.3606 11.4692 13.6372V14.1372C11.4692 14.206 11.5255 14.2622 11.5942 14.2622H12.538L12.9239 22.4341C12.9489 22.9669 13.3896 23.3872 13.9224 23.3872H21.0161C21.5505 23.3872 21.9896 22.9685 22.0146 22.4341L22.4005 14.2622H23.3442C23.413 14.2622 23.4692 14.206 23.4692 14.1372V13.6372C23.4692 13.3606 23.2458 13.1372 22.9692 13.1372ZM20.8958 22.2622H14.0427L13.6646 14.2622H21.2739L20.8958 22.2622Z" fill="#FF4D4F" fill-opacity="0.85"/>
</g>
</g>
<defs>
<clipPath id="clip0_87_1409">
<rect width="14" height="14" fill="white" transform="translate(10.4692 10.1387)"/>
</clipPath>
<clipPath id="clip1_87_1409">
<rect width="14" height="14" fill="white" transform="translate(10.4692 10.1387)"/>
</clipPath>
</defs>
</svg>
